<?xml version="1.0" standalone="no"?>
<!DOCTYPE svg PUBLIC "-//W3C//DTD SVG 20010904//EN"
 "http://www.w3.org/TR/2001/REC-SVG-20010904/DTD/svg10.dtd">
<svg version="1.0" xmlns="http://www.w3.org/2000/svg"
 width="996.000000pt" height="996.000000pt" viewBox="0 0 996.000000 996.000000"
 preserveAspectRatio="xMidYMid meet">
<metadata>
Created by potrace 1.11, written by Peter Selinger 2001-2013
</metadata>
<g transform="translate(0.000000,996.000000) scale(0.100000,-0.100000)"
fill="#000000" stroke="none">
<path d="M4820 9937 c-41 -12 -103 -39 -138 -60 -35 -20 -67 -37 -73 -37 -5 0
-9 -4 -9 -10 0 -5 -5 -10 -10 -10 -6 0 -40 -18 -76 -40 -36 -22 -70 -40 -75
-40 -5 0 -9 -3 -9 -7 0 -5 -20 -17 -45 -28 -25 -11 -45 -23 -45 -27 0 -5 -6
-8 -13 -8 -8 0 -24 -9 -37 -20 -13 -11 -26 -20 -31 -20 -4 0 -36 -17 -70 -38
-35 -21 -84 -49 -109 -62 -25 -14 -52 -30 -60 -36 -8 -7 -39 -25 -68 -41 -29
-15 -65 -35 -80 -43 -34 -20 -190 -111 -217 -127 -11 -7 -27 -16 -35 -20 -8
-4 -46 -26 -85 -48 -38 -23 -90 -53 -115 -67 -25 -14 -74 -43 -110 -63 -36
-21 -90 -52 -120 -68 -30 -17 -56 -34 -58 -39 -2 -4 -8 -8 -12 -8 -5 0 -59
-29 -121 -65 -61 -36 -116 -65 -120 -65 -5 0 -9 -5 -9 -12 0 -6 -3 -8 -7 -5
-3 4 -13 1 -22 -7 -9 -7 -41 -26 -71 -42 -30 -16 -57 -31 -60 -34 -6 -7 -334
-196 -398 -230 -26 -13 -49 -27 -52 -30 -3 -4 -12 -10 -20 -13 -8 -4 -28 -15
-45 -25 -16 -10 -50 -30 -75 -44 -25 -14 -101 -58 -170 -98 -69 -40 -141 -82
-160 -93 -50 -28 -222 -127 -240 -137 -67 -40 -128 -76 -145 -85 -11 -6 -123
-71 -248 -143 -126 -73 -231 -132 -233 -132 -29 0 -234 -174 -234 -199 0 -5
-6 -16 -13 -23 -13 -14 -47 -87 -48 -103 0 -5 -4 -14 -9 -20 -30 -36 -31 -154
-28 -2415 l3 -2285 22 -66 c39 -112 152 -260 230 -299 16 -8 39 -22 53 -31 14
-9 42 -26 63 -38 53 -30 83 -47 260 -150 86 -50 162 -91 167 -91 6 0 10 -4 10
-9 0 -5 8 -11 18 -14 9 -4 37 -18 62 -33 25 -15 65 -38 90 -52 25 -14 74 -42
109 -64 34 -21 67 -38 71 -38 5 0 15 -6 22 -12 14 -13 26 -21 107 -66 25 -14
79 -45 119 -69 41 -24 76 -43 79 -43 2 0 23 -13 46 -28 23 -16 49 -31 57 -34
8 -3 57 -31 109 -62 51 -31 97 -56 102 -56 5 0 9 -4 9 -10 0 -5 5 -10 11 -10
6 0 64 -32 130 -70 66 -39 124 -70 130 -70 5 0 9 -4 9 -8 0 -4 12 -13 28 -20
15 -6 41 -20 57 -30 17 -10 51 -30 77 -45 25 -14 64 -37 87 -51 22 -14 45 -26
51 -26 5 0 10 -5 10 -10 0 -6 3 -9 8 -8 4 1 18 -5 32 -14 42 -27 151 -88 156
-88 3 0 24 -13 47 -29 23 -15 47 -30 52 -32 27 -10 290 -164 293 -171 2 -5 8
-8 14 -8 5 0 22 -9 38 -20 15 -11 30 -17 34 -13 3 3 6 2 6 -4 0 -6 8 -14 18
-17 9 -3 26 -12 37 -19 11 -6 47 -27 80 -46 33 -19 68 -41 77 -49 10 -8 18
-12 18 -9 0 4 16 -4 35 -18 20 -13 49 -30 65 -37 17 -7 30 -17 30 -21 0 -5 4
-6 9 -3 5 3 14 -1 21 -9 7 -8 19 -15 26 -15 8 0 14 -4 14 -10 0 -5 4 -10 10
-10 5 0 33 -14 62 -31 29 -18 69 -41 88 -52 19 -11 49 -28 65 -38 17 -10 44
-25 60 -34 17 -8 37 -19 45 -25 41 -27 173 -100 181 -100 5 0 9 -4 9 -9 0 -5
8 -11 18 -14 9 -4 35 -17 57 -30 152 -90 352 -100 526 -26 27 12 49 25 49 30
0 5 5 9 11 9 6 0 56 27 111 60 54 33 101 60 104 60 3 0 28 15 57 33 29 18 63
38 77 45 14 8 39 21 55 30 32 18 255 148 649 376 81 47 152 86 157 86 5 0 9 3
9 8 0 4 23 18 50 31 28 14 50 29 50 33 0 4 9 8 20 8 11 0 20 4 20 9 0 5 8 11
18 14 9 3 40 20 67 36 28 17 59 35 70 41 11 5 27 14 35 20 20 13 158 92 240
138 25 14 57 33 72 43 14 11 28 19 31 19 5 0 230 130 407 234 25 15 53 29 63
33 9 3 17 9 17 14 0 5 7 9 15 9 8 0 15 5 15 11 0 5 4 8 9 5 4 -3 23 6 41 19
19 14 38 25 43 25 4 0 28 13 51 30 24 16 46 26 50 23 3 -4 6 -1 6 5 0 7 7 12
15 12 8 0 15 4 15 8 0 4 12 13 28 19 30 14 86 45 149 86 24 15 45 27 48 27 2
0 34 18 70 40 36 22 67 40 70 40 3 0 29 16 59 35 30 19 57 35 60 35 3 0 35 18
71 40 36 22 67 40 70 40 3 0 34 18 70 40 36 22 68 40 71 40 2 0 10 5 17 10 11
9 226 134 367 212 30 17 57 35 58 39 2 5 8 9 13 9 19 0 117 109 152 168 20 34
34 62 30 62 -3 0 -1 6 5 13 6 7 18 43 26 80 14 62 16 303 16 2345 0 2028 -2
2282 -16 2327 -8 28 -17 57 -19 65 -6 24 -36 81 -67 128 -65 95 -138 151 -338
258 -19 11 -37 22 -40 25 -3 3 -22 14 -42 24 -21 9 -38 21 -38 26 0 5 -5 9
-11 9 -14 0 -258 139 -277 157 -7 7 -17 13 -22 13 -5 0 -43 20 -83 45 -41 25
-80 45 -86 45 -6 0 -11 3 -11 8 0 4 -10 12 -23 18 -52 26 -144 78 -169 95 -14
11 -28 19 -31 19 -3 0 -35 18 -71 40 -36 22 -70 40 -76 40 -5 0 -10 4 -10 9 0
5 -8 11 -17 14 -28 9 -147 78 -154 89 -3 5 -12 10 -20 12 -8 1 -25 9 -39 18
-34 21 -135 80 -190 111 -25 13 -99 56 -165 94 -66 38 -131 76 -145 84 -14 8
-27 16 -30 19 -3 3 -16 11 -30 17 -14 7 -47 25 -75 41 -192 112 -350 203 -397
230 -56 32 -217 126 -266 155 -26 15 -58 33 -72 40 -14 6 -27 14 -30 18 -3 3
-12 8 -20 12 -8 3 -36 19 -62 34 -123 73 -211 123 -219 123 -5 0 -9 5 -9 10 0
6 -4 10 -10 10 -5 0 -47 23 -94 50 -47 28 -89 50 -95 50 -6 0 -11 3 -11 8 0 4
-28 22 -62 41 -35 18 -88 48 -118 66 -30 19 -62 38 -70 42 -8 4 -64 36 -125
71 -242 141 -271 152 -420 158 -83 3 -113 0 -175 -19z m409 -1352 c133 -77
262 -151 286 -165 25 -14 101 -58 170 -97 69 -40 129 -73 135 -73 5 0 10 -4
10 -8 0 -4 24 -20 53 -36 99 -53 162 -88 167 -95 3 -3 19 -13 35 -22 63 -32
120 -64 125 -70 5 -5 60 -37 160 -91 30 -17 62 -36 70 -42 8 -7 22 -16 30 -20
8 -3 42 -22 75 -41 33 -19 72 -41 88 -47 15 -7 27 -16 27 -20 0 -4 4 -8 10 -8
5 0 39 -18 75 -40 36 -22 70 -40 75 -40 6 0 10 -5 10 -10 0 -6 3 -9 8 -8 4 1
18 -5 32 -14 55 -35 152 -88 161 -88 5 0 9 -3 9 -7 0 -5 10 -13 23 -18 44 -21
112 -60 125 -72 7 -7 24 -16 38 -19 13 -3 24 -10 24 -15 0 -5 6 -9 14 -9 8 0
16 -3 18 -7 2 -5 24 -18 51 -31 26 -13 47 -28 47 -34 0 -6 3 -9 6 -6 3 4 39
-14 80 -38 41 -24 77 -44 80 -44 3 0 18 -9 33 -19 15 -11 54 -34 86 -52 33
-17 66 -36 73 -42 19 -15 95 -57 115 -64 9 -3 17 -9 17 -14 0 -5 4 -9 9 -9 5
0 47 -22 93 -48 46 -27 94 -55 108 -63 14 -8 33 -20 43 -28 9 -8 17 -11 17 -7
0 4 20 -6 43 -23 l44 -30 -1 -1872 -1 -1873 -50 -29 c-93 -55 -122 -72 -271
-157 -82 -46 -152 -89 -156 -95 -4 -5 -8 -6 -8 -1 0 5 -8 2 -17 -6 -10 -8 -43
-28 -73 -44 -30 -16 -57 -32 -60 -35 -3 -3 -32 -20 -65 -38 -33 -18 -64 -36
-70 -41 -5 -4 -30 -19 -55 -32 -25 -14 -85 -48 -133 -77 -49 -28 -93 -51 -98
-51 -5 0 -9 -4 -9 -9 0 -5 -8 -11 -17 -14 -17 -6 -105 -54 -149 -82 -11 -7
-97 -57 -190 -110 -93 -53 -180 -104 -194 -113 -14 -9 -27 -17 -30 -17 -3 0
-16 -8 -30 -16 -69 -44 -273 -159 -281 -159 -5 0 -9 -4 -9 -8 0 -4 -15 -15
-32 -23 -18 -8 -136 -75 -263 -148 -266 -154 -265 -154 -496 -286 -96 -54
-176 -102 -179 -105 -3 -3 -23 -15 -45 -27 -22 -11 -91 -50 -154 -87 -87 -50
-117 -63 -130 -55 -69 42 -102 61 -201 117 -25 14 -78 45 -118 69 -41 24 -76
43 -80 43 -3 0 -13 6 -21 14 -9 8 -38 26 -66 41 -27 14 -63 34 -80 44 -177
105 -417 241 -425 241 -5 0 -10 5 -10 10 0 6 -7 10 -15 10 -8 0 -15 5 -15 10
0 6 -6 10 -13 10 -7 0 -33 13 -58 28 -41 26 -106 64 -189 108 -19 11 -37 22
-40 25 -3 3 -12 9 -20 12 -8 4 -37 21 -65 37 -27 17 -61 36 -75 43 -14 6 -31
17 -38 24 -7 7 -18 13 -24 13 -6 0 -19 6 -27 14 -9 8 -40 26 -69 41 -29 15
-55 31 -58 36 -3 5 -10 7 -15 4 -5 -4 -9 -3 -9 2 0 4 -26 22 -58 38 -31 17
-59 32 -62 35 -3 3 -52 33 -110 65 -57 33 -114 65 -125 72 -11 7 -27 15 -35
19 -8 4 -17 10 -20 13 -3 3 -21 14 -40 24 -69 35 -95 50 -100 56 -3 4 -16 12
-30 18 -14 7 -43 24 -65 37 -22 14 -51 31 -65 39 -51 28 -506 290 -530 305
-14 9 -28 15 -32 14 -5 -1 -8 3 -8 8 0 6 -4 10 -10 10 -5 0 -39 18 -75 40 -36
22 -68 40 -71 40 -3 0 -18 9 -33 19 l-28 20 0 1868 c-1 1668 1 1870 15 1886 8
9 18 17 22 17 4 0 73 38 154 85 81 47 151 85 156 85 5 0 10 4 12 8 2 5 28 22
58 39 127 69 175 98 178 105 2 4 7 8 12 8 5 0 48 23 97 51 48 28 106 61 128
74 104 59 221 126 235 135 59 37 192 110 199 110 5 0 11 4 13 8 2 4 65 43 142
87 76 44 159 93 185 108 25 15 54 30 64 34 9 3 17 10 17 16 0 6 3 8 6 5 3 -3
46 18 95 48 49 30 94 54 99 54 6 0 10 5 10 10 0 6 4 10 9 10 9 0 342 189 351
199 3 3 31 19 63 36 31 16 57 33 57 37 0 4 8 8 18 8 10 0 22 4 27 9 6 5 93 58
195 117 102 59 199 115 215 125 17 10 41 23 54 29 13 6 35 19 50 29 14 10 51
32 81 48 30 17 93 53 140 81 47 28 88 49 91 49 3 -1 115 -65 248 -142z"/>
<path d="M2828 7015 c-3 -2 -91 -14 -125 -17 -7 -1 -13 -4 -13 -7 0 -4 -20
-13 -45 -20 -25 -7 -45 -17 -45 -22 0 -5 -7 -9 -16 -9 -9 0 -37 -17 -62 -37
-104 -85 -157 -158 -199 -280 l-27 -78 -1 -1595 c-1 -1754 -4 -1663 61 -1797
35 -73 128 -181 186 -216 158 -97 280 -118 471 -81 64 13 185 83 251 146 37
35 64 67 60 71 -4 4 -3 7 3 7 14 0 79 133 95 195 10 40 13 373 12 1635 0 872
-3 1603 -6 1625 -19 136 -93 260 -218 366 -30 26 -147 84 -186 93 -16 3 -40 9
-54 12 -26 6 -138 13 -142 9z"/>
<path d="M4233 7000 c-65 -15 -169 -59 -201 -84 -56 -44 -117 -106 -142 -145
-16 -25 -33 -51 -38 -57 -15 -18 -51 -130 -59 -186 -14 -91 -7 -1993 7 -1993
1 0 3 -11 6 -25 9 -57 86 -192 139 -244 46 -47 135 -116 148 -116 3 0 22 -8
43 -17 22 -9 42 -18 47 -19 4 -1 8 -2 10 -4 18 -15 238 -21 295 -7 213 50 383
226 432 447 6 28 9 411 9 1010 0 931 0 968 -19 1030 -93 307 -380 480 -677
410z"/>
<path d="M5798 7015 c-2 -2 -19 -5 -38 -8 -73 -12 -96 -19 -168 -55 -165 -82
-283 -249 -307 -432 -6 -40 -10 -2521 -5 -2545 1 -5 2 -14 1 -20 -5 -28 -2
-593 4 -628 24 -155 114 -300 239 -386 43 -30 125 -71 148 -75 7 -1 19 -5 26
-9 6 -5 17 -5 22 -2 6 3 10 2 10 -3 0 -5 11 -8 25 -7 14 2 27 0 29 -3 8 -13
154 -1 226 18 48 13 153 66 187 94 57 48 117 118 154 181 22 37 37 70 34 73
-3 3 0 11 6 19 6 7 8 13 5 13 -4 0 -3 8 3 18 5 9 12 40 16 67 11 81 7 3185 -4
3223 -5 18 -10 33 -10 35 2 16 -21 76 -48 129 -35 67 -119 163 -178 204 -43
30 -140 74 -163 74 -10 0 -22 3 -26 7 -3 4 -14 8 -24 10 -25 4 -161 10 -164 8z"/>
<path d="M7297 7014 c-1 -2 -23 -5 -48 -7 -25 -2 -50 -6 -55 -9 -5 -3 -27 -11
-48 -18 -67 -22 -151 -77 -215 -141 -33 -34 -58 -65 -55 -70 3 -5 1 -9 -5 -9
-11 0 -63 -106 -76 -155 -5 -16 -10 -37 -12 -45 -2 -8 -6 -51 -8 -96 -9 -184
69 -351 224 -477 29 -23 148 -83 186 -92 150 -39 310 -21 425 46 8 5 29 16 45
25 34 19 157 135 151 142 -3 2 4 13 14 25 27 29 78 154 86 212 10 78 8 165 -5
225 -30 128 -125 271 -229 343 -26 17 -49 32 -52 33 -3 0 -27 10 -53 22 -27
12 -58 24 -70 26 -12 2 -29 7 -38 11 -16 6 -157 14 -162 9z"/>
<path d="M7317 5524 c-1 -2 -27 -6 -56 -9 -80 -9 -188 -50 -239 -90 -93 -74
-162 -148 -162 -175 0 -6 -3 -10 -8 -10 -11 0 -56 -109 -68 -165 -20 -97 -5
-282 26 -321 7 -7 9 -14 6 -14 -18 0 63 -127 113 -178 57 -58 97 -92 107 -92
3 0 18 -8 32 -19 15 -10 45 -24 67 -31 22 -7 44 -15 50 -18 28 -17 186 -25
245 -13 96 18 101 20 149 42 163 78 271 207 317 379 14 53 20 204 10 245 -3
11 -10 37 -15 58 -9 39 -58 143 -76 163 -5 6 -27 31 -48 56 -71 86 -223 169
-335 183 -68 9 -111 12 -115 9z"/>
</g>
</svg>
