<?xml version="1.0" standalone="no"?>
<!DOCTYPE svg PUBLIC "-//W3C//DTD SVG 20010904//EN"
 "http://www.w3.org/TR/2001/REC-SVG-20010904/DTD/svg10.dtd">
<svg version="1.0" xmlns="http://www.w3.org/2000/svg"
 width="700.000000pt" height="700.000000pt" viewBox="0 0 700.000000 700.000000"
 preserveAspectRatio="xMidYMid meet">
<metadata>
Created by potrace 1.11, written by Peter Selinger 2001-2013
</metadata>
<g transform="translate(0.000000,700.000000) scale(0.100000,-0.100000)"
fill="#000000" stroke="none">
<path d="M5942 5984 c-91 -19 -269 -106 -332 -162 -122 -108 -174 -197 -173
-296 2 -152 112 -266 257 -266 64 0 124 14 292 66 60 19 125 34 142 32 91 -7
84 -112 -10 -160 -63 -33 -107 -29 -154 14 -21 18 -22 18 -165 -65 -79 -46
-150 -86 -158 -88 -9 -3 2 -21 36 -55 70 -72 141 -98 248 -90 116 8 215 46
348 133 219 143 305 320 233 478 -30 66 -51 91 -101 120 -93 54 -183 50 -410
-21 -146 -45 -196 -51 -218 -29 -9 9 -17 26 -17 39 0 27 54 80 95 93 34 11 86
0 104 -21 10 -12 35 -1 159 71 81 46 148 86 150 88 3 3 -65 72 -89 91 -18 13
-94 34 -139 38 -19 1 -63 -3 -98 -10z"/>
<path d="M4864 5784 c-112 -64 -110 -59 -69 -126 18 -32 45 -76 58 -100 98
-172 150 -258 157 -258 11 0 169 91 176 101 4 7 -45 99 -106 199 -46 76 -100
171 -100 176 0 3 -8 16 -18 29 l-19 24 -79 -45z"/>
<path d="M4435 5128 c-403 -127 -570 -470 -386 -791 124 -217 342 -300 581
-221 47 15 87 32 88 36 2 4 9 8 15 8 19 0 130 75 185 125 133 119 184 290 135
447 l-18 58 -80 -46 c-44 -26 -96 -55 -115 -66 -120 -68 -140 -83 -134 -98 4
-8 7 -36 7 -61 1 -103 -106 -167 -207 -125 -81 34 -174 187 -183 300 -5 56 -3
64 22 94 35 42 74 62 121 62 36 0 104 -33 104 -51 0 -17 24 -9 80 24 30 18 80
47 110 64 126 70 150 85 150 94 0 22 -99 104 -159 132 -58 28 -77 32 -161 33
-69 1 -112 -4 -155 -18z"/>
<path d="M3715 4736 c-50 -23 -111 -83 -135 -133 -18 -37 -23 -67 -24 -125 l0
-78 -31 50 c-16 27 -38 64 -48 81 -17 30 -18 31 -40 15 -12 -9 -29 -19 -37
-23 -8 -4 -46 -25 -85 -48 -38 -23 -89 -52 -111 -65 l-42 -23 29 -51 c16 -28
33 -58 38 -66 5 -8 64 -109 130 -225 253 -438 279 -480 292 -477 8 2 82 42
165 90 116 66 150 91 145 103 -3 8 -46 84 -95 169 -128 221 -147 299 -90 382
25 35 89 82 141 104 22 9 22 11 -43 124 -37 63 -78 136 -93 163 -29 53 -25 51
-66 33z"/>
<path d="M6652 4605 c-60 -28 -118 -87 -129 -134 -26 -102 64 -298 159 -347
43 -22 115 -21 169 3 59 26 125 92 137 135 15 53 7 139 -17 189 -69 145 -201
209 -319 154z m158 -90 c19 -12 50 -48 69 -80 28 -45 35 -67 34 -105 -3 -89
-46 -140 -121 -140 -76 0 -151 69 -184 170 -44 137 81 233 202 155z"/>
<path d="M6218 4572 c-34 -20 -34 -30 -7 -77 l21 -36 32 20 c36 23 36 24 11
74 -21 42 -21 42 -57 19z"/>
<path d="M6030 4464 c-14 -8 -24 -19 -22 -25 2 -10 77 -143 112 -199 5 -8 57
-99 116 -202 l107 -186 33 16 c19 9 34 20 34 24 0 5 -12 30 -26 56 -23 40
-148 258 -174 302 -5 8 -37 63 -71 123 -34 59 -67 107 -73 106 -6 -1 -22 -7
-36 -15z"/>
<path d="M6310 4403 c-14 -9 -27 -18 -29 -19 -4 -3 66 -126 131 -231 21 -34
38 -65 38 -67 0 -11 73 -126 80 -126 5 0 22 8 38 17 l29 17 -84 144 c-45 80
-83 148 -83 153 0 5 -3 9 -8 9 -4 0 -13 12 -19 28 -20 43 -52 92 -61 92 -4 0
-19 -8 -32 -17z"/>
<path d="M2791 4169 c-140 -36 -345 -154 -458 -265 -74 -72 -113 -147 -114
-221 -2 -55 26 -153 43 -153 6 0 44 20 85 45 40 25 76 45 79 45 4 0 25 12 48
28 22 15 54 33 69 41 15 8 27 22 26 30 -7 72 36 127 119 153 41 14 51 14 74 2
35 -18 44 -53 24 -92 -8 -16 -75 -77 -148 -135 -210 -165 -268 -242 -268 -357
0 -109 91 -239 188 -268 171 -52 437 90 513 273 12 30 26 55 31 55 4 0 17 -13
30 -30 26 -36 36 -37 86 -7 22 12 94 53 161 91 66 38 121 73 121 78 0 4 -17
15 -38 23 -43 18 -30 -1 -188 272 -177 306 -203 342 -283 382 -55 28 -116 31
-200 10z m158 -595 c52 -111 23 -196 -83 -244 -29 -13 -46 -16 -70 -9 -17 5
-32 9 -33 9 -9 0 -31 60 -28 76 2 10 4 23 4 28 1 11 173 186 182 186 4 0 17
-21 28 -46z"/>
<path d="M5880 4150 c-119 -33 -188 -120 -175 -223 8 -64 38 -140 73 -188 89
-120 194 -136 317 -48 82 59 113 180 70 274 -63 137 -180 213 -285 185z m97
-93 c60 -31 123 -133 123 -199 0 -50 -36 -114 -72 -129 -85 -35 -169 15 -223
133 -28 62 -28 103 -1 156 29 56 106 73 173 39z"/>
<path d="M5433 4130 c-60 -36 -69 -93 -28 -175 24 -46 24 -51 9 -62 -9 -7 -21
-14 -27 -16 -9 -3 18 -67 29 -67 2 0 15 7 29 16 28 18 13 38 139 -180 47 -81
86 -152 86 -157 0 -17 20 -18 49 -2 17 10 31 21 31 25 0 9 -178 319 -191 333
-17 17 -9 41 21 58 29 18 30 19 15 48 -18 33 -20 34 -55 14 -35 -20 -35 -19
-59 21 -28 46 -26 68 5 93 24 19 25 21 8 45 -20 31 -20 31 -61 6z"/>
<path d="M1520 3854 c-118 -69 -216 -127 -218 -129 -2 -2 8 -50 23 -107 15
-57 28 -110 30 -118 2 -8 20 -80 40 -160 20 -80 39 -154 41 -165 2 -11 19 -78
38 -148 l34 -129 -46 44 c-43 41 -364 353 -500 486 -35 34 -66 62 -68 62 -5 0
-437 -250 -444 -257 -2 -2 5 -21 17 -41 160 -276 351 -608 374 -647 15 -27 77
-135 137 -240 l110 -190 -545 -3 -545 -2 6 -78 c28 -381 254 -723 592 -900
634 -329 1407 19 1583 713 19 77 36 210 32 252 -1 10 -118 13 -533 15 l-533 3
50 29 c28 15 69 39 93 53 143 81 152 88 138 109 -7 10 -26 44 -43 74 -17 30
-51 90 -77 133 -25 43 -46 80 -46 83 0 3 -8 17 -19 32 -10 15 -49 77 -87 137
-38 61 -71 112 -74 115 -13 12 -79 110 -74 110 3 0 25 -19 48 -42 34 -34 229
-224 560 -544 9 -8 43 7 131 58 66 37 124 74 128 81 5 7 -11 88 -38 197 -26
102 -48 192 -50 200 -3 12 -45 178 -61 240 -2 8 -8 33 -14 55 -6 22 -13 53
-16 69 -3 16 -10 40 -15 54 -18 48 -1 32 21 -20 26 -61 116 -244 150 -303 12
-22 67 -117 122 -212 l99 -172 47 26 c26 14 59 34 74 44 14 11 28 19 31 19 3
0 45 24 94 53 l90 52 -17 30 c-25 44 -454 787 -551 954 -46 79 -89 146 -94
147 -6 2 -107 -53 -225 -122z"/>
<path d="M5172 3899 l-31 -21 31 -55 31 -55 -26 -21 -27 -22 21 -32 c20 -31
22 -32 42 -18 12 8 25 15 29 15 4 0 33 -44 64 -97 31 -54 73 -126 93 -160 45
-77 67 -91 120 -75 21 7 49 20 61 30 21 17 21 18 4 48 -17 30 -19 30 -44 16
-15 -9 -34 -13 -42 -9 -13 5 -150 229 -170 279 -6 14 1 22 27 36 l35 17 -20
33 c-22 35 -35 39 -64 17 -11 -8 -23 -15 -26 -15 -4 0 -19 22 -34 50 -15 27
-30 51 -34 54 -5 3 -22 -4 -40 -15z"/>
<path d="M5092 3714 c-27 -18 -52 -65 -52 -96 l-1 -23 -20 24 -20 25 -35 -19
-34 -18 24 -41 c99 -169 196 -340 196 -346 0 -4 8 -15 19 -24 18 -16 20 -16
49 1 l31 19 -81 143 c-99 175 -103 200 -39 265 l42 43 -18 31 c-20 36 -29 38
-61 16z"/>
<path d="M4691 3468 c-87 -24 -161 -112 -161 -189 0 -110 84 -260 172 -305 88
-46 245 21 290 123 51 115 -21 297 -140 358 -41 20 -115 26 -161 13z m119 -88
c34 -18 96 -105 110 -154 10 -38 10 -55 0 -88 -35 -118 -157 -131 -242 -27
-49 61 -59 84 -65 143 -8 88 51 151 134 142 23 -3 51 -10 63 -16z"/>
<path d="M4169 3380 c-21 -6 -301 -161 -318 -176 -2 -2 24 -49 57 -106 33 -57
72 -125 87 -153 16 -27 39 -67 52 -87 12 -21 23 -39 23 -42 0 -2 25 -45 55
-95 30 -51 55 -96 55 -101 0 -15 16 -12 54 11 l35 21 -24 39 c-14 21 -25 41
-25 45 0 3 -8 18 -18 32 -10 15 -33 52 -50 82 l-31 56 123 73 c142 84 160 106
159 191 -1 136 -120 242 -234 210z m91 -107 c49 -29 66 -104 36 -161 -13 -26
-182 -132 -210 -132 -6 0 -22 21 -36 48 -13 26 -37 67 -52 91 -29 47 -34 61
-19 61 5 0 51 25 102 55 100 58 133 65 179 38z"/>
</g>
</svg>
