<?xml version="1.0" standalone="no"?>
<!DOCTYPE svg PUBLIC "-//W3C//DTD SVG 20010904//EN"
 "http://www.w3.org/TR/2001/REC-SVG-20010904/DTD/svg10.dtd">
<svg version="1.0" xmlns="http://www.w3.org/2000/svg"
 width="760.000000pt" height="760.000000pt" viewBox="0 0 760.000000 760.000000"
 preserveAspectRatio="xMidYMid meet">
<metadata>
Created by potrace 1.11, written by Peter Selinger 2001-2013
</metadata>
<g transform="translate(0.000000,760.000000) scale(0.100000,-0.100000)"
fill="#000000" stroke="none">
<path d="M6468 6505 c-3 -3 -20 -9 -38 -11 -55 -9 -184 -69 -271 -126 -109
-72 -182 -147 -222 -228 -27 -55 -32 -75 -32 -140 0 -59 5 -85 25 -125 33 -67
96 -128 153 -148 46 -15 157 -17 217 -3 29 7 128 36 150 44 8 3 17 6 20 6 3 1
10 4 15 8 21 13 152 40 180 36 23 -2 34 -12 48 -40 17 -34 17 -39 2 -67 -23
-46 -85 -82 -145 -86 -44 -3 -55 0 -84 25 -29 26 -35 28 -57 16 -102 -55 -309
-179 -309 -185 0 -7 71 -77 102 -100 71 -53 219 -62 343 -22 39 13 75 27 80
31 6 4 21 11 35 15 41 13 211 129 267 183 155 150 187 314 91 463 -53 80 -126
117 -232 117 -91 0 -158 -14 -316 -65 -25 -8 -52 -16 -60 -18 -8 -2 -26 -7
-40 -13 -14 -5 -44 -9 -68 -8 -36 1 -46 6 -60 28 -14 24 -14 30 -1 54 37 70
153 102 201 56 l24 -21 79 47 c44 27 87 51 95 55 8 4 24 13 35 20 11 7 42 25
68 40 l47 28 -35 38 c-59 64 -127 94 -220 99 -44 2 -83 1 -87 -3z"/>
<path d="M5270 6274 c-52 -30 -96 -57 -98 -59 -4 -3 231 -418 254 -450 10 -13
25 -8 110 41 55 31 100 58 101 59 2 1 -31 59 -72 130 -41 70 -75 130 -75 131
0 2 -18 33 -40 69 -22 36 -40 69 -40 73 0 4 -10 19 -23 35 l-22 27 -95 -56z"/>
<path d="M4905 5588 c-197 -25 -426 -172 -521 -333 -76 -130 -91 -273 -44
-416 25 -76 74 -173 105 -205 5 -6 27 -29 47 -52 79 -86 239 -153 351 -146 88
6 136 13 172 28 19 8 35 13 35 10 0 -10 160 77 216 119 129 95 198 190 232
317 13 48 6 174 -12 232 l-18 57 -51 -27 c-27 -15 -57 -31 -66 -37 -72 -44
-182 -105 -191 -105 -5 0 -10 -4 -10 -9 0 -5 -8 -12 -19 -16 -16 -5 -18 -15
-17 -79 1 -86 -15 -116 -77 -149 -111 -58 -219 6 -304 181 -56 115 -57 194 -3
255 58 66 150 72 215 15 l35 -30 93 53 c50 29 132 76 180 105 l88 51 -56 57
c-104 105 -224 144 -380 124z"/>
<path d="M4015 5133 c-76 -48 -120 -101 -143 -173 -14 -41 -18 -135 -8 -171 8
-26 -42 47 -76 112 -11 22 -23 41 -27 43 -4 3 -65 -29 -135 -70 -70 -41 -131
-74 -134 -74 -4 -1 -18 -10 -31 -21 -20 -16 -23 -24 -15 -37 6 -9 22 -37 36
-62 14 -25 43 -74 64 -110 21 -36 39 -68 39 -72 0 -4 6 -13 13 -19 6 -7 12
-19 12 -26 0 -7 4 -13 9 -13 5 0 11 -6 13 -13 2 -10 93 -170 183 -325 6 -9 28
-48 50 -87 22 -38 46 -79 52 -90 7 -11 16 -28 19 -37 9 -26 27 -22 100 22 36
22 67 40 69 40 4 0 146 83 183 107 l23 14 -22 37 c-12 20 -30 51 -39 67 -10
17 -35 59 -55 95 -107 184 -126 231 -126 307 -1 86 47 149 149 198 28 14 52
30 52 36 0 6 -31 63 -68 127 -38 64 -71 124 -75 132 -18 36 -53 85 -62 86 -5
1 -28 -10 -50 -23z"/>
<path d="M7277 5018 c-72 -15 -154 -73 -183 -130 -46 -89 5 -264 106 -368 86
-88 226 -78 329 22 107 104 88 280 -45 413 -51 51 -138 78 -207 63z m118 -118
c48 -33 102 -119 110 -175 6 -42 -13 -115 -37 -139 -36 -35 -99 -46 -151 -27
-65 25 -145 138 -153 214 -13 136 116 207 231 127z"/>
<path d="M6743 4959 l-31 -20 25 -44 c13 -25 28 -45 32 -45 14 0 71 31 71 38
0 14 -45 86 -55 89 -5 1 -24 -6 -42 -18z"/>
<path d="M6564 4856 c-18 -8 -35 -19 -38 -25 -4 -6 16 -49 44 -96 27 -47 50
-90 50 -95 0 -6 4 -10 8 -10 4 0 13 -12 19 -27 7 -16 24 -48 39 -73 29 -49 34
-58 119 -205 31 -55 64 -110 71 -122 l14 -22 35 20 c19 12 35 24 35 27 0 3
-22 46 -50 94 -27 48 -50 92 -50 97 0 5 -3 11 -8 13 -6 3 -107 172 -151 253
-9 16 -18 32 -21 35 -5 5 -18 29 -62 113 -11 20 -21 37 -22 37 0 -1 -15 -7
-32 -14z"/>
<path d="M6855 4783 c-16 -8 -32 -17 -34 -19 -5 -5 32 -78 42 -82 4 -2 7 -9 7
-17 0 -7 7 -18 15 -25 8 -7 15 -21 15 -30 0 -10 4 -20 8 -22 4 -1 27 -37 51
-78 24 -41 57 -97 73 -125 16 -27 34 -60 40 -72 l10 -21 37 20 c20 11 38 22
39 23 2 2 -19 42 -47 90 -28 47 -51 88 -51 90 0 3 -15 28 -32 57 -36 59 -47
76 -98 166 -19 34 -37 62 -40 62 -3 -1 -18 -8 -35 -17z"/>
<path d="M3053 4534 c-100 -21 -231 -83 -368 -172 -186 -123 -278 -247 -277
-375 0 -44 7 -78 22 -110 12 -26 23 -47 25 -47 1 0 79 44 172 98 159 91 169
99 163 122 -8 30 7 80 29 98 41 33 101 62 135 66 30 4 42 1 62 -19 53 -53 19
-102 -171 -250 -211 -164 -270 -245 -270 -370 0 -91 34 -167 106 -236 28 -27
54 -47 57 -45 2 3 19 -2 36 -11 70 -36 247 -6 336 57 15 11 31 20 34 20 16 0
136 115 136 130 0 6 5 10 10 10 6 0 24 32 42 70 18 39 35 70 38 70 3 0 16 -16
30 -35 30 -41 42 -42 95 -10 22 14 57 34 77 45 42 22 220 130 227 136 8 8 -15
24 -39 29 -27 5 -60 33 -60 51 0 7 -4 14 -8 16 -7 3 -66 97 -67 108 0 3 -12
23 -26 45 -14 22 -43 72 -64 110 -21 39 -49 87 -62 107 -12 21 -23 40 -23 42
0 3 -22 37 -49 78 -104 158 -196 203 -348 172z m175 -772 c-5 -54 -28 -96 -64
-116 -10 -6 -21 -13 -24 -16 -14 -15 -60 -27 -95 -25 -49 3 -75 33 -75 87 0
36 8 47 102 144 l103 105 28 -63 c24 -51 28 -73 25 -116z"/>
<path d="M5909 4490 c-72 -38 -87 -101 -44 -186 31 -61 31 -67 0 -84 -14 -7
-25 -16 -25 -19 0 -17 43 -73 48 -64 4 5 17 15 29 22 21 10 25 6 64 -61 23
-40 54 -94 69 -119 16 -26 45 -77 65 -115 54 -99 56 -101 98 -75 l36 22 -71
122 c-39 67 -79 138 -90 157 -11 19 -31 54 -45 77 -24 41 -24 63 0 63 7 0 20
7 29 14 17 12 17 16 2 44 -19 39 -29 46 -46 30 -8 -7 -23 -18 -34 -25 -19 -10
-23 -7 -40 25 -36 72 -36 72 -4 103 29 29 29 31 15 60 -9 16 -17 29 -18 29 -1
-1 -18 -9 -38 -20z"/>
<path d="M6333 4485 c-47 -21 -76 -46 -121 -99 -7 -9 -10 -16 -6 -16 3 0 2 -6
-4 -13 -26 -31 3 -183 51 -265 80 -137 190 -178 313 -116 153 77 192 234 97
388 -82 132 -208 178 -330 121z m158 -80 c64 -34 132 -146 131 -217 -1 -45
-38 -128 -57 -128 -7 0 -15 -4 -17 -10 -4 -13 -54 -16 -100 -7 -77 16 -168
145 -168 237 0 114 108 178 211 125z"/>
<path d="M1855 4301 c-17 -10 -123 -71 -235 -136 -113 -65 -206 -119 -208
-120 -1 -1 29 -128 68 -281 39 -154 74 -290 77 -304 7 -36 9 -41 21 -85 6 -22
13 -51 16 -65 3 -14 13 -55 24 -92 11 -38 18 -68 16 -68 -1 0 -29 25 -61 56
-43 42 -577 562 -598 582 -3 3 -52 -24 -193 -107 -57 -34 -108 -61 -113 -61
-5 0 -9 -4 -9 -9 0 -5 -6 -11 -12 -13 -32 -8 -158 -84 -158 -94 0 -7 31 -65
69 -128 38 -63 67 -117 65 -119 -3 -2 2 -10 11 -17 8 -7 15 -19 15 -26 0 -8 5
-14 10 -14 6 0 10 -4 10 -9 0 -9 53 -106 88 -161 9 -14 15 -28 14 -32 -1 -5 2
-8 8 -8 5 0 10 -4 10 -9 0 -5 34 -67 75 -136 41 -70 75 -129 75 -131 0 -2 25
-44 55 -95 30 -50 55 -93 55 -94 0 -2 20 -38 45 -79 25 -42 45 -80 45 -85 0
-5 6 -14 14 -20 8 -6 16 -20 19 -30 4 -18 -14 -19 -547 -19 -303 0 -568 -1
-590 -1 l-38 -1 6 -77 c11 -140 35 -248 77 -355 29 -74 110 -228 121 -228 4 0
8 -5 8 -11 0 -18 114 -151 186 -217 118 -108 262 -193 418 -247 44 -15 89 -29
100 -31 131 -28 174 -32 301 -29 77 1 154 5 170 9 17 3 39 7 50 9 54 9 235 66
245 77 3 3 25 14 50 25 216 93 435 314 554 558 21 42 39 83 40 90 2 6 6 19 9
27 17 45 34 103 42 145 3 17 8 41 11 55 3 13 8 54 10 90 2 36 6 70 8 76 13 36
2 36 -588 36 -317 0 -576 2 -574 3 2 1 64 37 138 80 74 42 145 84 158 92 l23
14 -24 42 c-14 23 -34 58 -44 77 -11 19 -53 91 -93 160 -40 69 -78 134 -84
145 -6 11 -56 87 -111 169 -55 81 -106 158 -114 170 -8 11 6 1 31 -24 25 -25
146 -142 268 -260 122 -118 256 -248 296 -287 41 -40 77 -73 79 -73 11 0 270
153 277 163 4 6 4 16 0 22 -3 5 -7 15 -8 20 -5 27 -66 274 -74 300 -13 40 -83
319 -109 433 -4 20 -14 57 -20 81 -19 68 -7 58 29 -27 34 -78 121 -250 159
-313 11 -19 27 -47 35 -64 9 -16 27 -48 41 -70 13 -22 28 -47 32 -55 22 -43
115 -200 122 -204 4 -3 42 15 84 39 42 25 81 45 87 45 5 0 10 3 10 8 0 4 21
18 48 32 37 19 95 53 131 77 2 1 -14 33 -35 70 -22 37 -42 75 -47 83 -4 8 -18
33 -32 55 -14 22 -31 51 -37 65 -7 14 -17 32 -24 40 -6 8 -25 40 -41 70 -17
30 -44 78 -60 106 -17 27 -41 70 -55 95 -80 141 -362 626 -370 637 -14 16 -17
15 -53 -7z"/>
<path d="M5618 4235 l-37 -21 36 -63 c19 -34 33 -63 31 -65 -1 -1 -15 -10 -30
-19 l-27 -17 20 -35 c24 -40 21 -39 59 -20 28 14 30 14 42 -10 39 -72 133
-232 146 -247 8 -10 12 -18 8 -18 -4 0 5 -16 19 -35 41 -53 77 -59 147 -24 49
25 52 33 31 69 -20 34 -21 35 -48 17 -44 -29 -52 -20 -169 182 -36 62 -66 117
-66 121 0 5 16 17 35 29 l35 20 -21 36 c-24 41 -31 42 -69 15 l-28 -20 -38 63
-39 63 -37 -21z"/>
<path d="M5538 4041 c-22 -13 -77 -90 -70 -98 1 -2 2 -13 2 -25 -1 -22 -1 -22
-18 5 -19 32 -30 33 -70 10 l-29 -17 28 -47 c16 -25 29 -51 29 -58 0 -6 5 -11
10 -11 6 0 10 -4 10 -9 0 -9 120 -222 130 -231 4 -3 12 -18 19 -35 6 -16 20
-40 31 -53 l18 -22 36 21 c28 16 34 24 27 37 -5 10 -30 52 -55 95 -25 43 -46
82 -46 86 0 5 -3 11 -7 13 -5 2 -19 23 -32 48 -46 83 -26 172 45 210 l24 13
-22 36 c-29 50 -30 50 -60 32z"/>
<path d="M5089 3763 c-94 -32 -154 -96 -168 -180 -16 -103 66 -276 162 -340
42 -28 55 -32 105 -29 123 6 230 94 248 203 17 101 -13 184 -105 286 -57 64
-157 88 -242 60z m114 -88 c76 -32 151 -148 146 -227 -4 -50 -32 -109 -62
-128 -83 -51 -191 2 -252 125 -47 96 -35 176 34 222 39 27 84 29 134 8z"/>
<path d="M4515 3667 c-16 -6 -69 -34 -118 -64 -48 -29 -89 -53 -92 -53 -7 0
-125 -72 -125 -76 0 -3 11 -22 25 -44 14 -22 25 -42 25 -44 0 -2 19 -37 43
-78 24 -40 55 -93 69 -118 32 -57 164 -285 190 -327 l19 -32 34 16 c47 22 50
38 15 87 -16 24 -27 46 -24 48 2 3 -2 11 -11 18 -8 7 -15 19 -15 26 0 8 -4 14
-10 14 -5 0 -10 6 -10 14 0 7 -9 25 -20 39 -40 51 -24 80 70 124 32 15 143 85
159 101 15 14 28 37 31 57 1 3 5 18 10 33 20 72 -41 200 -116 244 -37 22 -107
29 -149 15z m82 -96 c6 -1 25 -12 41 -26 39 -33 54 -90 36 -141 -15 -43 -40
-67 -111 -104 -26 -14 -66 -37 -88 -51 l-40 -27 -38 66 c-83 143 -86 150 -74
160 34 28 231 130 245 127 10 -2 22 -4 29 -4z"/>
</g>
</svg>
