<?xml version="1.0" standalone="no"?>
<!DOCTYPE svg PUBLIC "-//W3C//DTD SVG 20010904//EN"
 "http://www.w3.org/TR/2001/REC-SVG-20010904/DTD/svg10.dtd">
<svg version="1.0" xmlns="http://www.w3.org/2000/svg"
 width="680.000000pt" height="680.000000pt" viewBox="0 0 680.000000 680.000000"
 preserveAspectRatio="xMidYMid meet">
<metadata>
Created by potrace 1.11, written by Peter Selinger 2001-2013
</metadata>
<g transform="translate(0.000000,680.000000) scale(0.100000,-0.100000)"
fill="#000000" stroke="none">
<path d="M3120 5960 c0 -3 -21 -5 -48 -5 -59 -1 -202 -18 -267 -32 -16 -3 -39
-7 -50 -9 -25 -3 -225 -53 -245 -61 -8 -3 -21 -7 -28 -9 -89 -18 -415 -167
-554 -252 -473 -291 -859 -745 -1048 -1237 -12 -33 -26 -69 -31 -80 -9 -23
-39 -112 -45 -135 -2 -8 -17 -67 -34 -130 -16 -63 -30 -122 -30 -131 0 -12
-65 -38 -110 -44 -3 0 -9 -3 -15 -6 -5 -4 -23 -9 -40 -13 -46 -11 -257 -97
-285 -116 -14 -9 -33 -20 -43 -23 -35 -13 -134 -86 -171 -127 -94 -105 -92
-201 7 -303 29 -28 62 -59 73 -68 40 -30 189 -106 274 -139 47 -18 94 -36 105
-41 11 -4 60 -20 109 -36 101 -32 90 -17 126 -171 20 -85 68 -247 89 -297 51
-122 71 -165 116 -255 55 -111 110 -205 171 -292 21 -29 47 -66 58 -83 12 -16
26 -34 32 -40 5 -5 23 -28 39 -50 45 -61 291 -305 375 -371 41 -32 76 -62 78
-66 2 -5 10 -8 17 -8 7 0 15 -3 17 -7 8 -19 240 -162 348 -215 111 -54 287
-127 350 -144 8 -2 69 -19 135 -38 66 -18 136 -36 155 -39 19 -3 44 -8 55 -10
11 -2 47 -8 80 -12 33 -4 71 -9 85 -11 96 -14 344 -24 403 -16 l27 4 0 104 0
104 68 1 c37 1 81 2 97 4 47 3 168 17 186 20 15 3 67 12 114 20 31 6 55 12
120 29 33 10 65 18 70 20 56 14 142 43 204 67 92 36 285 130 289 141 2 4 8 8
13 8 17 0 145 83 259 169 63 47 167 138 230 201 126 126 145 147 210 235 25
33 47 62 50 65 10 9 98 144 124 190 22 37 99 194 136 275 5 11 19 47 30 80 12
33 25 69 30 80 10 22 38 119 45 154 7 39 14 42 148 66 15 3 38 10 53 15 15 6
29 8 31 6 3 -3 17 0 32 6 14 5 34 11 45 14 10 2 44 11 75 20 31 9 61 17 66 18
14 3 116 36 140 46 11 4 53 20 93 35 230 86 400 214 430 325 48 182 -223 367
-749 511 -82 22 -155 42 -162 43 -7 1 -39 8 -72 15 -80 18 -88 19 -103 20 -13
1 -29 35 -34 73 -2 13 -6 28 -9 33 -4 6 -10 24 -14 40 -12 44 -12 45 -15 50
-1 3 -3 8 -5 13 -1 4 -5 16 -9 27 -4 11 -17 45 -29 75 -31 83 -108 245 -118
248 -5 2 -9 10 -9 18 0 7 -16 38 -35 68 -19 30 -35 59 -35 65 0 5 -4 11 -8 13
-5 2 -28 32 -52 68 -125 185 -296 364 -510 533 -8 7 -31 23 -50 37 -19 13 -37
27 -40 30 -7 7 -42 29 -60 37 -8 4 -17 9 -20 13 -16 19 -225 128 -350 183
-108 47 -356 119 -485 141 -16 3 -39 7 -50 9 -18 4 -122 15 -210 23 -16 1 -58
3 -92 3 l-63 1 0 105 0 105 -37 1 c-125 4 -243 3 -243 -1z m-4 -947 l-1 -658
-45 1 c-51 2 -222 15 -260 19 -14 2 -47 7 -75 10 -27 4 -61 8 -75 10 -14 2
-40 6 -57 9 -18 3 -45 8 -60 11 -16 2 -50 9 -78 15 -27 6 -70 15 -95 20 -78
16 -192 48 -201 57 -4 4 9 58 30 118 184 525 494 908 822 1013 35 12 71 23 79
26 8 2 15 5 16 5 0 1 0 -295 0 -656z m-746 483 c0 -3 -6 -11 -13 -18 -23 -23
-124 -160 -146 -199 -8 -13 -33 -53 -55 -89 -72 -119 -192 -383 -236 -525 -20
-65 -24 -66 -88 -38 -127 55 -321 162 -342 189 -11 13 -8 18 49 82 86 97 179
186 316 301 70 59 259 177 377 236 129 65 138 69 138 61z m1235 -181 c75 -8
129 -16 222 -36 29 -5 54 -9 55 -8 2 1 12 -3 24 -9 11 -6 32 -13 45 -16 44 -8
191 -66 284 -110 320 -152 610 -414 802 -721 67 -108 176 -336 188 -395 3 -14
28 -98 36 -120 9 -25 14 -47 24 -105 3 -16 8 -37 10 -45 23 -84 39 -377 21
-383 -6 -2 -47 -3 -91 -3 l-80 1 -2 40 c-8 163 -16 249 -34 335 -6 25 -12 58
-14 73 -3 15 -9 35 -13 45 -5 9 -12 32 -16 50 -3 19 -12 48 -20 65 -7 18 -24
59 -37 92 -42 111 -130 265 -214 380 -56 76 -224 250 -300 310 -27 22 -51 43
-53 48 -2 4 -9 7 -16 7 -7 0 -21 9 -31 20 -10 11 -24 20 -32 20 -7 0 -13 5
-13 10 0 6 -5 10 -12 10 -6 0 -19 6 -27 14 -42 36 -320 163 -386 176 -3 1 -19
6 -37 11 -43 14 -140 37 -175 43 -26 5 -46 7 -153 22 -25 3 -71 5 -102 4 l-58
-1 0 95 0 94 78 -3 c42 -3 100 -7 127 -10z m-13 -539 c13 -3 39 -8 58 -10 120
-17 304 -84 433 -157 229 -130 425 -333 550 -570 60 -114 115 -274 132 -384
15 -93 21 -158 20 -220 l0 -70 -86 -1 -86 0 -31 45 c-24 36 -32 61 -36 115 -4
38 -15 107 -26 152 -21 85 -87 256 -102 262 -4 2 -8 8 -8 14 0 6 -25 48 -55
94 -60 90 -194 230 -266 279 -24 17 -49 35 -56 42 -22 20 -216 111 -282 132
-86 28 -216 52 -290 53 l-61 2 0 111 c0 61 3 115 7 118 7 7 144 2 185 -7z
m-2234 -203 c15 -10 33 -23 40 -30 7 -7 18 -13 24 -13 6 0 19 -6 27 -14 23
-21 289 -154 334 -168 20 -6 37 -15 37 -21 0 -5 -9 -52 -20 -105 -10 -54 -22
-115 -25 -137 -4 -22 -8 -51 -11 -65 -2 -14 -6 -45 -9 -70 -3 -25 -8 -61 -10
-80 -7 -61 -16 -163 -20 -240 -2 -41 -4 -78 -4 -81 -1 -4 -166 -6 -368 -5
l-368 1 3 50 c2 28 4 67 5 87 1 21 6 38 10 38 5 0 6 3 3 8 -2 4 0 30 5 57 5
28 12 61 14 75 10 51 14 72 20 90 3 10 8 27 10 38 8 45 86 264 115 328 48 103
101 207 137 267 7 11 21 8 51 -10z m872 -375 c87 -24 158 -39 170 -37 3 0 17
-4 32 -10 15 -6 49 -13 75 -17 27 -3 57 -8 68 -10 33 -7 67 -12 120 -19 28 -4
64 -9 80 -11 54 -7 216 -19 326 -23 14 -1 16 -31 15 -263 l-1 -263 -557 -1
-557 -1 5 56 c2 31 7 88 9 126 2 39 7 95 11 125 3 30 7 63 7 73 1 9 4 17 7 17
3 0 5 15 6 33 0 38 8 92 24 167 7 30 12 63 12 74 -1 22 10 21 148 -16z m3570
-373 c66 -11 315 -75 420 -109 201 -64 369 -157 418 -230 24 -36 42 -115 26
-117 -5 -1 -213 -2 -461 -3 l-453 -1 -1 90 c-1 117 -14 251 -35 354 -7 32 -6
33 22 27 16 -3 45 -8 64 -11z m-5085 -103 c-18 -99 -24 -414 -10 -547 13 -118
13 -125 4 -131 -5 -3 -9 0 -9 6 0 6 -4 9 -8 6 -14 -9 -241 72 -340 121 -51 26
-107 59 -123 74 -16 15 -29 25 -29 22 0 -3 -13 11 -30 32 -102 129 -1 253 307
376 43 17 89 33 102 35 13 3 32 9 41 14 9 5 29 11 45 14 15 3 30 7 33 10 11
12 22 -7 17 -32z m3971 -432 c96 0 105 -2 100 -17 -3 -10 -8 -38 -11 -63 -10
-75 -14 -92 -35 -170 -25 -89 -25 -89 -35 -115 -34 -88 -43 -101 -66 -102 -13
-1 -74 -5 -135 -8 l-110 -7 48 98 c26 54 45 100 43 102 -3 3 -1 10 4 16 15 19
58 216 60 274 1 21 2 22 17 8 12 -13 38 -16 120 -16z m630 -72 c-3 -40 -8 -86
-11 -103 -26 -144 -39 -205 -45 -214 -8 -13 -35 -20 -105 -27 -27 -2 -61 -7
-74 -10 -21 -4 -23 -2 -17 18 36 119 68 286 75 396 1 9 26 12 92 12 l91 0 -6
-72z m1260 37 c-60 -53 -297 -160 -422 -190 -10 -3 -59 -16 -109 -30 -84 -23
-215 -54 -260 -60 -11 -2 -20 -4 -20 -5 0 -1 -12 -4 -28 -6 -26 -5 -27 -3 -21
28 9 50 26 185 30 243 1 17 2 36 3 43 1 9 94 12 434 12 l432 -1 -39 -34z
m-4855 -13 c1 -9 2 -46 4 -82 3 -62 8 -115 21 -242 l6 -57 -34 4 c-18 3 -53 7
-78 10 -25 3 -65 8 -90 11 -25 3 -58 8 -75 10 -16 3 -46 7 -65 10 -45 6 -277
44 -304 51 -12 2 -34 6 -50 7 -16 2 -32 9 -36 17 -9 16 -19 77 -26 159 -3 30
-7 66 -9 79 -2 13 -2 28 1 33 3 5 169 8 370 8 336 -1 364 -2 365 -18z m1395
-209 c0 -123 -2 -224 -5 -224 -3 -1 -31 -3 -61 -5 -30 -2 -82 -6 -115 -9 -115
-11 -325 -4 -675 20 -41 3 -106 8 -144 10 -38 3 -71 7 -73 8 -2 2 -6 26 -9 53
-3 27 -7 59 -9 71 -3 21 -15 171 -19 253 -1 19 -1 38 1 42 2 4 252 6 556 5
l552 -2 1 -222z m-1986 -188 c69 -15 119 -24 155 -29 23 -4 52 -9 65 -12 57
-11 222 -35 355 -50 60 -7 72 -15 73 -51 1 -16 8 -57 15 -93 15 -66 13 -76
-12 -82 -36 -8 -326 -161 -403 -212 -48 -32 -91 -55 -95 -53 -5 3 -35 61 -67
129 -32 67 -63 131 -67 140 -12 24 -78 216 -85 248 -19 83 -19 83 12 76 16 -4
40 -9 54 -11z m4074 -118 c-8 -23 -18 -51 -23 -62 -5 -11 -25 -54 -44 -96
-160 -351 -469 -672 -843 -875 -101 -55 -330 -143 -417 -159 -9 -2 -21 -6 -26
-9 -4 -3 -26 -8 -47 -11 -21 -2 -50 -7 -64 -10 -81 -16 -153 -25 -262 -29
l-78 -3 0 89 c0 62 4 90 13 93 6 2 55 6 107 9 52 3 106 8 120 11 13 2 40 7 60
10 20 3 47 8 60 11 14 3 36 7 50 10 70 14 274 90 373 140 215 108 420 272 562
449 22 28 42 52 45 55 3 3 19 25 35 50 16 25 32 47 35 50 19 17 140 250 140
269 0 16 38 29 110 35 35 3 65 7 66 9 2 1 12 3 23 4 19 2 19 0 5 -40z m-2981
-28 c15 1 27 -2 27 -6 0 -12 -161 -56 -170 -46 -5 4 -12 21 -16 36 l-6 28 68
-6 c38 -4 81 -6 97 -6z m2370 -12 c-79 -132 -229 -299 -348 -387 -33 -25 -62
-47 -65 -50 -6 -8 -89 -55 -155 -90 -51 -27 -198 -86 -238 -95 -175 -41 -203
-45 -309 -50 l-78 -3 0 117 0 118 33 0 c64 0 164 14 237 33 25 6 52 13 60 14
17 4 27 7 127 48 81 33 220 117 279 169 21 19 68 64 104 102 l65 67 110 6 c61
3 111 7 112 7 1 1 18 3 37 4 26 1 34 -2 29 -10z m-1476 -861 l0 -693 -36 9
c-244 64 -482 266 -662 563 -64 105 -133 235 -124 235 3 0 -3 12 -12 27 -20
31 -26 45 -94 241 -27 79 -47 147 -44 152 5 8 35 18 105 36 8 2 42 10 75 19
79 20 99 24 180 40 22 5 47 10 55 11 8 2 35 6 60 10 25 3 56 8 70 10 14 2 52
6 85 10 33 4 80 9 105 13 24 3 88 7 141 9 l96 2 0 -694z m-1218 375 c32 -125
131 -361 221 -526 47 -84 54 -98 62 -109 32 -45 78 -120 78 -127 0 -5 4 -9 9
-9 5 0 19 -15 30 -32 11 -18 32 -46 46 -62 14 -16 25 -31 25 -32 0 -14 -221
100 -314 161 -38 25 -71 45 -73 45 -6 0 -146 105 -166 124 -9 10 -17 15 -17
12 0 -12 -269 261 -315 319 l-47 59 29 23 c42 34 155 100 257 151 50 24 102
50 116 57 32 18 43 7 59 -54z"/>
</g>
</svg>
