<?xml version="1.0" encoding="UTF-8" standalone="no"?>
<!-- Created with Inkscape (http://www.inkscape.org/) -->

<svg
   xmlns:dc="http://purl.org/dc/elements/1.1/"
   xmlns:cc="http://creativecommons.org/ns#"
   xmlns:rdf="http://www.w3.org/1999/02/22-rdf-syntax-ns#"
   xmlns:svg="http://www.w3.org/2000/svg"
   xmlns="http://www.w3.org/2000/svg"
   xmlns:sodipodi="http://sodipodi.sourceforge.net/DTD/sodipodi-0.dtd"
   xmlns:inkscape="http://www.inkscape.org/namespaces/inkscape"
   width="257.78mm"
   height="262.98001mm"
   viewBox="0 0 257.78 262.98001"
   version="1.1"
   id="svg1999"
   sodipodi:docname="amazo-logo2.svg"
   inkscape:version="0.92.4 (5da689c313, 2019-01-14)">
  <defs
     id="defs1993" />
  <sodipodi:namedview
     id="base"
     pagecolor="#ffffff"
     bordercolor="#666666"
     borderopacity="1.0"
     inkscape:pageopacity="0.0"
     inkscape:pageshadow="2"
     inkscape:zoom="0.35"
     inkscape:cx="-64.285714"
     inkscape:cy="560"
     inkscape:document-units="mm"
     inkscape:current-layer="layer1"
     showgrid="false"
     inkscape:window-width="1366"
     inkscape:window-height="715"
     inkscape:window-x="-8"
     inkscape:window-y="-8"
     inkscape:window-maximized="1" />
  <metadata
     id="metadata1996">
    <rdf:RDF>
      <cc:Work
         rdf:about="">
        <dc:format>image/svg+xml</dc:format>
        <dc:type
           rdf:resource="http://purl.org/dc/dcmitype/StillImage" />
        <dc:title></dc:title>
      </cc:Work>
    </rdf:RDF>
  </metadata>
  <g
     inkscape:label="Layer 1"
     inkscape:groupmode="layer"
     id="layer1"
     transform="translate(0,-34.02)">
    <g
       id="g2585"
       transform="translate(72.949521,24.176045)">
      <path
         id="path1908-1-6-80-0-6"
         d="M 56.837546,9.8479283 A 101.94758,101.94758 0 0 0 17.067841,17.546228 101.94758,101.94758 0 0 0 -38.40836,150.41303 101.94758,101.94758 0 0 0 94.310136,206.24324 101.94758,101.94758 0 0 0 150.49385,73.67403 l -0.4119,-1.006102 A 101.94758,101.94758 0 0 0 56.837546,9.8479283 Z m -0.82581,19.5114997 c 0.1518,0 0.30351,0.01 0.4548,0.022 0.4761,0.046 0.9462,0.1658 1.39421,0.3555 0,0 0.01,0 0.012,0.01 0.1367,0.058 0.2712,0.123 0.4031,0.1948 a 4.7511578,4.7511578 0 0 1 0.088,0.052 c 0.1031,0.059 0.2054,0.119599 0.3049,0.187099 a 4.7511578,4.7511578 0 0 1 0.1514,0.111601 c 0.075,0.055 0.1503,0.109299 0.2227,0.169499 a 4.7511578,4.7511578 0 0 1 0.1845,0.166901 c 0.048,0.044 0.098,0.084 0.1442,0.130199 l 0.048,0.048 10.5477,10.547099 10.6024,10.6025 10.5358,10.535801 c 0.2666,0.256299 0.5025,0.543599 0.7033,0.8563 0.073,0.113199 0.1417,0.228798 0.2047,0.3483 0.01,0.02 0.019,0.04 0.029,0.059 0,0 0,0.01 0.01,0.01299 0.054,0.107601 0.1069,0.216001 0.153,0.328102 0.027,0.065 0.049,0.132498 0.073,0.198999 0.027,0.075 0.056,0.149301 0.079,0.2263 0.012,0.038 0.021,0.077 0.032,0.115801 0.02,0.074 0.037,0.147899 0.054,0.222199 0.01,0.034 0.017,0.066 0.024,0.1 0.01,0.045 0.016,0.09 0.024,0.1348 a 4.7511578,4.7511578 0 0 1 0,0.027 c 0.024,0.1455 0.043,0.291402 0.053,0.438201 a 4.7511578,4.7511578 0 0 1 0,0.092 c 0.01,0.1068 0.011,0.213599 0.01,0.3204 v 18.4433 L 105.64305,71.328118 c 1.86121,-1.861198 4.8578,-1.861198 6.71901,0 1.86119,1.861101 1.86119,4.858301 0,6.719404 l -19.807614,19.8076 v 27.936808 c 0.01,0.3447 -0.026,0.68929 -0.096,1.0284 0,0.013 -0.01,0.026 -0.01,0.04 -0.029,0.1337 -0.061,0.2666 -0.1018,0.398 -0.02,0.065 -0.045,0.1277 -0.067,0.1917 -0.027,0.076 -0.052,0.1532 -0.083,0.2284 -0.046,0.1124 -0.099,0.22089 -0.1534,0.3286 -0.012,0.025 -0.023,0.05 -0.036,0.075 -0.23721,0.45071 -0.54551,0.8568 -0.909,1.20661 l -21.13461,21.1347 c 0,0 0,0 0,0 l -7.2394,7.23939 7.2394,7.23881 v 0 l 0.026,0.026 0.024,0.024 10.5503,10.5497 10.5999,10.5999 c 1.8612,1.8612 1.8612,4.8583 0,6.7195 -1.8612,1.8611 -4.8578,1.8611 -6.719,0 l -10.6004,-10.6004 -10.5998,-10.5999 -0.048,-0.048 -7.1918,-7.1913 -7.239401,7.2394 c 0,0 0,0 0,0 l -10.597801,10.5978 -10.599899,10.5999 c -1.8612,1.8612 -4.8583,1.8612 -6.719501,0 -1.8611,-1.8612 -1.8611,-4.8578 0,-6.719 l 10.597801,-10.5978 v 0 l 10.549699,-10.5492 0.045,-0.046 c 0,0 0,0 0,0 v 0 l 7.239307,-7.2393 -7.239302,-7.2394 c 0,0 0,0 0,0 v 0 L 20.90614,129.29284 c -0.3634,-0.3498 -0.6712,-0.756 -0.9085,-1.2066 -0.01,-0.02 -0.019,-0.04 -0.029,-0.059 a 4.7511578,4.7511578 0 0 1 -0.01,-0.019 c 0,-0.01 -0.01,-0.011 -0.01,-0.017 -0.051,-0.102 -0.100701,-0.2045 -0.144201,-0.3106 -0.01201,-0.029 -0.02201,-0.058 -0.034,-0.087 a 4.7511578,4.7511578 0 0 1 -0.01,-0.016 c -0.01101,-0.03 -0.02101,-0.06 -0.031,-0.09 -0.028,-0.077 -0.057,-0.1524 -0.081,-0.231 -0.01101,-0.036 -0.02,-0.073 -0.03,-0.1091 a 4.7511578,4.7511578 0 0 1 -0.01,-0.039 c -0.01799,-0.067 -0.035,-0.1348 -0.05,-0.2026 -0.01,-0.029 -0.015,-0.057 -0.02101,-0.086 -0.01,-0.044 -0.01601,-0.088 -0.02299,-0.1313 a 4.7511578,4.7511578 0 0 1 -0.01,-0.052 c -0.02199,-0.13639 -0.04,-0.27319 -0.05,-0.4108 a 4.7511578,4.7511578 0 0 1 -0.01,-0.1431 c 0,-0.093 -0.01,-0.18489 -0.01,-0.2775 V 95.955828 c 0,-0.043 0,-0.086 0,-0.128598 V 65.977827 c 0,-0.02199 0,-0.043 0,-0.065 -1.01e-4,-0.318403 0.034,-0.636403 0.098,-0.949802 0.01,-0.034 0.01699,-0.066 0.024,-0.1 0.02601,-0.1138 0.053,-0.226901 0.087,-0.339 0.02299,-0.074 0.05,-0.145301 0.076,-0.217601 0.025,-0.069 0.047,-0.138999 0.075,-0.207201 0.044,-0.107598 0.095,-0.211299 0.146799,-0.314698 0.015,-0.03 0.028,-0.061 0.044,-0.091 0.236199,-0.448101 0.5422,-0.852001 0.903301,-1.200402 l 10.540899,-10.541 21.1977,-21.197699 c 0.01,-0.01 0.01701,-0.015 0.025,-0.023 a 4.7511578,4.7511578 0 0 1 0.183999,-0.1664 c 0.06,-0.054 0.119502,-0.1096 0.181901,-0.1597 a 4.7511578,4.7511578 0 0 1 0.126601,-0.093 c 0.088,-0.066 0.1759,-0.1321 0.2672,-0.1912 a 4.7511578,4.7511578 0 0 1 0.069,-0.041 c 0.114498,-0.071 0.230499,-0.1392 0.349297,-0.1999 a 4.7511578,4.7511578 0 0 1 0.019,-0.01 c 0.1358,-0.069 0.274,-0.1307 0.41439,-0.1855 a 4.7511578,4.7511578 0 0 1 0.016,-0.01 c 0.1427,-0.055 0.2873,-0.1029 0.4336,-0.1436 a 4.7511578,4.7511578 0 0 1 0.016,0 c 0.1447,-0.04 0.2905,-0.073 0.4377,-0.099 a 4.7511578,4.7511578 0 0 1 0.052,-0.01 c 0.10461,-0.017 0.2088,-0.035 0.3142,-0.046 0.034,0 0.069,0 0.10331,-0.01 a 4.7511578,4.7511578 0 0 1 0.095,0 c 0.085,0 0.1695,-0.012 0.2543,-0.012 z m 0,11.473201 -7.241896,7.2414 L 30.930039,65.91383 48.76984,83.753028 c 1.861101,1.861201 1.861101,4.8578 0,6.719001 -1.8612,1.8611 -4.8578,1.8611 -6.719001,0 L 28.96274,77.383927 v 16.540602 l 19.8071,19.806501 c 1.861101,1.8612 1.861101,4.8578 0,6.719 -1.8612,1.8612 -4.8578,1.8612 -6.719001,0 L 28.96274,107.36193 v 16.5406 l 19.8071,19.8065 c 0,0 0,0 0,0 0,0 0,0 0,0 l 7.239396,7.2393 7.23931,-7.2393 c 0,0 0,0 0,0 0,0 0,0 0,0 l 19.80699,-19.807 V 97.859129 L 63.248546,78.052127 c -1.86121,-1.861198 -1.86121,-4.857797 0,-6.718998 1.86119,-1.861201 4.8578,-1.861201 6.71899,0 l 13.088,13.088099 V 67.881629 l -9.2046,-9.205101 c 0,0 0,0 -0.01,0 l -0.047,-0.048 -10.5498,-10.5492 z"
         style="opacity:1;fill:#6600ff;fill-opacity:1;stroke:none;stroke-width:1;stroke-linecap:round;stroke-linejoin:round;stroke-miterlimit:4;stroke-dasharray:none;stroke-dashoffset:0;stroke-opacity:1"
         inkscape:connector-curvature="0" />
      <g
         transform="matrix(1.623809,0,0,1.623809,-134.02534,20.299409)"
         id="g1512">
        <text
           id="text832-2-1-7-2-2-6-4-3-8-1-6-70-4"
           y="154.5201"
           x="148.55383"
           style="font-style:normal;font-weight:normal;font-size:32.44524384px;line-height:1.25;font-family:sans-serif;letter-spacing:0px;word-spacing:0px;fill:#6600ff;fill-opacity:1;stroke:#6600ff;stroke-width:0.88404614;stroke-miterlimit:4;stroke-dasharray:none"
           xml:space="preserve"><tspan
             id="tspan2560-1-1-4-6-41-4"
             style="font-style:normal;font-variant:normal;font-weight:normal;font-stretch:normal;font-family:Eagle;-inkscape-font-specification:Eagle;text-align:center;text-anchor:middle;fill:#6600ff;stroke:#6600ff;stroke-width:0.88404614;stroke-miterlimit:4;stroke-dasharray:none"
             y="154.5201"
             x="148.55383"
             sodipodi:role="line">A<tspan
   style="fill:#00ff00;stroke:#00ff00;stroke-width:0.88404614;stroke-miterlimit:4;stroke-dasharray:none"
   id="tspan1549-2-8-08">Z</tspan>O</tspan></text>
        <text
           id="text832-2-1-7-2-2-6-4-3-8-1-6-7-1-37"
           y="154.50334"
           x="84.480446"
           style="font-style:normal;font-weight:normal;font-size:32.44524384px;line-height:1.25;font-family:sans-serif;letter-spacing:0px;word-spacing:0px;fill:#6600ff;fill-opacity:1;stroke:#6600ff;stroke-width:0.88404614;stroke-miterlimit:4;stroke-dasharray:none"
           xml:space="preserve"><tspan
             id="tspan2560-1-1-4-6-4-4-0"
             style="font-style:normal;font-variant:normal;font-weight:normal;font-stretch:normal;font-family:Eagle;-inkscape-font-specification:Eagle;text-align:center;text-anchor:middle;fill:#6600ff;stroke:#6600ff;stroke-width:0.88404614;stroke-miterlimit:4;stroke-dasharray:none"
             y="154.50334"
             x="84.480446"
             sodipodi:role="line">AM.</tspan></text>
        <text
           id="text832-2-1-7-2-2-6-4-3-8-1-6-7-1-9-3"
           y="153.40115"
           x="44.202099"
           style="font-style:normal;font-weight:normal;font-size:32.44524384px;line-height:1.25;font-family:sans-serif;letter-spacing:0px;word-spacing:0px;fill:#6600ff;fill-opacity:1;stroke:#6600ff;stroke-width:0.88404614;stroke-miterlimit:4;stroke-dasharray:none"
           xml:space="preserve"><tspan
             id="tspan2560-1-1-4-6-4-4-8-8"
             style="font-style:normal;font-variant:normal;font-weight:normal;font-stretch:normal;font-family:Eagle;-inkscape-font-specification:Eagle;text-align:center;text-anchor:middle;fill:#6600ff;stroke:#6600ff;stroke-width:0.88404614;stroke-miterlimit:4;stroke-dasharray:none"
             y="153.40115"
             x="44.202099"
             sodipodi:role="line">&lt;</tspan></text>
        <text
           id="text832-2-1-7-2-2-6-4-3-8-1-6-7-1-9-5-2"
           y="153.40115"
           x="189.739"
           style="font-style:normal;font-weight:normal;font-size:32.44524384px;line-height:1.25;font-family:sans-serif;letter-spacing:0px;word-spacing:0px;fill:#6600ff;fill-opacity:1;stroke:#6600ff;stroke-width:0.88404614;stroke-miterlimit:4;stroke-dasharray:none"
           xml:space="preserve"><tspan
             id="tspan2560-1-1-4-6-4-4-8-4-5"
             style="font-style:normal;font-variant:normal;font-weight:normal;font-stretch:normal;font-family:Eagle;-inkscape-font-specification:Eagle;text-align:center;text-anchor:middle;fill:#6600ff;stroke:#6600ff;stroke-width:0.88404614;stroke-miterlimit:4;stroke-dasharray:none"
             y="153.40115"
             x="189.739"
             sodipodi:role="line">&gt;</tspan></text>
      </g>
    </g>
  </g>
</svg>
