<?xml version="1.0" encoding="UTF-8" standalone="no"?>
<!-- Created with Inkscape (http://www.inkscape.org/) -->

<svg
   xmlns:dc="http://purl.org/dc/elements/1.1/"
   xmlns:cc="http://creativecommons.org/ns#"
   xmlns:rdf="http://www.w3.org/1999/02/22-rdf-syntax-ns#"
   xmlns:svg="http://www.w3.org/2000/svg"
   xmlns="http://www.w3.org/2000/svg"
   xmlns:sodipodi="http://sodipodi.sourceforge.net/DTD/sodipodi-0.dtd"
   xmlns:inkscape="http://www.inkscape.org/namespaces/inkscape"
   width="100mm"
   height="100mm"
   viewBox="0 0 100 100"
   version="1.1"
   id="svg1999"
   sodipodi:docname="amazo-logo-patch.svg"
   inkscape:version="0.92.4 (5da689c313, 2019-01-14)">
  <defs
     id="defs1993" />
  <sodipodi:namedview
     id="base"
     pagecolor="#ffffff"
     bordercolor="#666666"
     borderopacity="1.0"
     inkscape:pageopacity="0.0"
     inkscape:pageshadow="2"
     inkscape:zoom="0.35"
     inkscape:cx="46.468997"
     inkscape:cy="560"
     inkscape:document-units="mm"
     inkscape:current-layer="layer1"
     showgrid="false"
     inkscape:window-width="1366"
     inkscape:window-height="715"
     inkscape:window-x="-8"
     inkscape:window-y="-8"
     inkscape:window-maximized="1"
     units="mm" />
  <metadata
     id="metadata1996">
    <rdf:RDF>
      <cc:Work
         rdf:about="">
        <dc:format>image/svg+xml</dc:format>
        <dc:type
           rdf:resource="http://purl.org/dc/dcmitype/StillImage" />
        <dc:title></dc:title>
      </cc:Work>
    </rdf:RDF>
  </metadata>
  <g
     inkscape:label="Layer 1"
     inkscape:groupmode="layer"
     id="layer1"
     transform="translate(0,-197.00003)">
    <path
       inkscape:connector-curvature="0"
       style="opacity:1;fill:#6600ff;fill-opacity:1;stroke:none;stroke-width:0.49044833;stroke-linecap:round;stroke-linejoin:round;stroke-miterlimit:4;stroke-dasharray:none;stroke-dashoffset:0;stroke-opacity:1"
       d="m 50.439977,197.00191 a 50.000017,50.000017 0 0 0 -19.504988,3.77562 50.000017,50.000017 0 0 0 -27.2082076,65.1643 50.000017,50.000017 0 0 0 65.0915646,27.38183 50.000017,50.000017 0 0 0 27.555191,-65.01835 l -0.202015,-0.49343 A 50.000017,50.000017 0 0 0 50.439977,197.00191 Z m -0.405018,9.56939 c 0.07445,0 0.148855,0.005 0.223057,0.0108 0.233498,0.0226 0.464061,0.0813 0.683788,0.17434 0,0 0.0047,0 0.0059,0.005 0.06705,0.0285 0.13301,0.0603 0.197699,0.0955 a 2.3301973,2.3301973 0 0 1 0.04317,0.0255 c 0.05055,0.0289 0.100737,0.0586 0.149534,0.0918 a 2.3301973,2.3301973 0 0 1 0.07426,0.0547 c 0.03679,0.027 0.07371,0.0536 0.109222,0.0831 a 2.3301973,2.3301973 0 0 1 0.09049,0.0819 c 0.02356,0.0215 0.04807,0.0412 0.07072,0.0639 l 0.02356,0.0236 5.173098,5.1728 5.199929,5.19998 5.16727,5.16727 c 0.130754,0.1257 0.246446,0.26661 0.34493,0.41997 0.03577,0.0555 0.06954,0.11221 0.100393,0.17082 0.0046,0.01 0.0093,0.0196 0.01423,0.0289 0,0 0,0.005 0.0046,0.006 0.02646,0.0528 0.05246,0.10595 0.075,0.16093 0.01323,0.0319 0.024,0.065 0.03577,0.0976 0.01323,0.0368 0.02746,0.0732 0.03877,0.11099 0.0062,0.0187 0.01031,0.0377 0.01569,0.0568 0.0098,0.0363 0.01815,0.0725 0.02654,0.10897 0.0046,0.0166 0.0083,0.0324 0.01177,0.0491 0.0046,0.0221 0.0079,0.0441 0.01177,0.0661 a 2.3301973,2.3301973 0 0 1 0,0.0132 c 0.01177,0.0714 0.02108,0.14292 0.026,0.21492 a 2.3301973,2.3301973 0 0 1 0,0.0451 c 0.0046,0.0524 0.0054,0.10476 0.0046,0.15714 v 9.04549 l 6.419277,-6.41899 c 0.912831,-0.91282 2.382501,-0.91282 3.295321,0 0.912815,0.91278 0.912815,2.38275 0,3.29552 l -9.714598,9.71461 v 13.70155 c 0.0046,0.16906 -0.01277,0.33807 -0.04708,0.50438 0,0.006 -0.0046,0.0128 -0.0046,0.0196 -0.01423,0.0656 -0.02992,0.13076 -0.04992,0.1952 -0.0098,0.0319 -0.02208,0.0626 -0.03285,0.094 -0.01323,0.0373 -0.02554,0.0751 -0.04069,0.11203 -0.02254,0.0551 -0.04854,0.10833 -0.07523,0.16116 -0.0062,0.0123 -0.01131,0.0245 -0.01769,0.0368 -0.116338,0.22104 -0.267546,0.42021 -0.445815,0.59177 l -10.365376,10.36549 c 0,0 0,0 0,0 l -3.550547,3.55054 3.550547,3.55027 v 0 l 0.01276,0.0127 0.01175,0.0118 5.174375,5.17408 5.1987,5.1987 c 0.912824,0.91283 0.912824,2.38275 0,3.29558 -0.912815,0.91275 -2.3825,0.91275 -3.295315,0 l -5.198951,-5.19896 -5.198651,-5.1987 -0.02356,-0.0236 -3.527203,-3.52697 -3.550553,3.55057 c 0,0 0,0 0,0 l -5.197679,5.19767 -5.198698,5.1987 c -0.912823,0.91281 -2.382747,0.91281 -3.295568,0 -0.912773,-0.91283 -0.912773,-2.3825 0,-3.29533 l 5.197675,-5.19768 v 0 l 5.174085,-5.17383 0.02209,-0.0226 c 0,0 0,0 0,0 v 0 l 3.550506,-3.5505 -3.5505,-3.55056 c 0,0 0,0 0,0 v 0 l -10.36525,-10.36506 c -0.178229,-0.17155 -0.329189,-0.37077 -0.445572,-0.59177 -0.0049,-0.01 -0.0093,-0.0196 -0.01422,-0.0289 a 2.3301973,2.3301973 0 0 1 -0.0049,-0.009 c 0,-0.005 -0.0049,-0.005 -0.0049,-0.008 -0.02502,-0.05 -0.04939,-0.1003 -0.07072,-0.15234 -0.0059,-0.0142 -0.0108,-0.0285 -0.01668,-0.0426 a 2.3301973,2.3301973 0 0 1 -0.0049,-0.008 c -0.0054,-0.0147 -0.01031,-0.0294 -0.01521,-0.0441 -0.01373,-0.0378 -0.02796,-0.0748 -0.03973,-0.11329 -0.0054,-0.0177 -0.0098,-0.0358 -0.01472,-0.0535 a 2.3301973,2.3301973 0 0 1 -0.0049,-0.0191 c -0.0088,-0.0328 -0.01717,-0.0661 -0.02453,-0.0994 -0.0049,-0.0142 -0.0074,-0.0279 -0.01031,-0.0422 -0.0049,-0.0216 -0.0079,-0.0432 -0.01127,-0.0644 a 2.3301973,2.3301973 0 0 1 -0.0049,-0.0255 c -0.01078,-0.0669 -0.01962,-0.13398 -0.02453,-0.20147 a 2.3301973,2.3301973 0 0 1 -0.0049,-0.0702 c 0,-0.0456 -0.0049,-0.0907 -0.0049,-0.13609 V 239.234 c 0,-0.0211 0,-0.0422 0,-0.0631 v -14.63959 c 0,-0.0108 0,-0.0211 0,-0.0319 -4.8e-5,-0.15616 0.01668,-0.31213 0.04807,-0.46583 0.0049,-0.0166 0.0083,-0.0324 0.01177,-0.0491 0.01276,-0.0558 0.026,-0.11128 0.04267,-0.16626 0.01127,-0.0363 0.02452,-0.0713 0.03728,-0.10672 0.01226,-0.0338 0.02305,-0.0682 0.03678,-0.10163 0.02158,-0.0527 0.0466,-0.10363 0.072,-0.15434 0.0074,-0.0147 0.01373,-0.0299 0.02158,-0.0446 0.115843,-0.21979 0.265921,-0.41786 0.443022,-0.58875 l 5.169767,-5.1698 10.396376,-10.39638 c 0.0047,-0.005 0.0083,-0.007 0.01228,-0.0113 a 2.3301973,2.3301973 0 0 1 0.09024,-0.0816 c 0.02941,-0.0265 0.05858,-0.0537 0.08922,-0.0783 a 2.3301973,2.3301973 0 0 1 0.06209,-0.0456 c 0.04317,-0.0324 0.08627,-0.0648 0.13105,-0.0938 a 2.3301973,2.3301973 0 0 1 0.03384,-0.0201 c 0.05616,-0.0348 0.113049,-0.0683 0.171313,-0.098 a 2.3301973,2.3301973 0 0 1 0.0093,-0.005 c 0.0666,-0.0338 0.134386,-0.0641 0.203238,-0.091 a 2.3301973,2.3301973 0 0 1 0.0079,-0.005 c 0.06999,-0.027 0.140906,-0.0505 0.212658,-0.0704 a 2.3301973,2.3301973 0 0 1 0.0079,0 c 0.07097,-0.0196 0.142477,-0.0358 0.214666,-0.0485 a 2.3301973,2.3301973 0 0 1 0.02551,-0.005 c 0.05132,-0.008 0.102408,-0.0172 0.154099,-0.0226 0.01665,0 0.03384,0 0.05067,-0.005 a 2.3301973,2.3301973 0 0 1 0.04659,0 c 0.04169,0 0.08313,-0.006 0.124717,-0.006 z m 0,5.62701 -3.551782,3.55153 -8.749496,8.7495 8.749496,8.74921 c 0.912773,0.91282 0.912773,2.38249 0,3.29532 -0.912821,0.91277 -2.382495,0.91277 -3.295317,0 l -6.419039,-6.41904 v 8.11231 l 9.714356,9.71406 c 0.912773,0.91282 0.912773,2.38251 0,3.29533 -0.912821,0.91282 -2.382495,0.91282 -3.295317,0 l -6.419039,-6.41904 v 8.11231 l 9.714356,9.71406 c 0,0 0,0 0,0 0,0 0,0 0,0 l 3.550554,3.5505 3.550506,-3.5505 c 0,0 0,0 0,0 0,0 0,0 0,0 l 9.714309,-9.71431 v -12.77269 l -9.714309,-9.71431 c -0.912827,-0.91282 -0.912827,-2.3825 0,-3.29532 0.912821,-0.91282 2.382502,-0.91282 3.295317,0 l 6.418992,6.41903 v -8.11182 l -4.514382,-4.51463 c 0,0 0,0 -0.0047,0 l -0.02303,-0.0236 -5.174133,-5.17384 z"
       id="path1908-1-6-80-0-6" />
  </g>
</svg>
