<?xml version="1.0" encoding="UTF-8" standalone="no"?>
<!-- Created with Inkscape (http://www.inkscape.org/) -->

<svg
   xmlns:dc="http://purl.org/dc/elements/1.1/"
   xmlns:cc="http://creativecommons.org/ns#"
   xmlns:rdf="http://www.w3.org/1999/02/22-rdf-syntax-ns#"
   xmlns:svg="http://www.w3.org/2000/svg"
   xmlns="http://www.w3.org/2000/svg"
   xmlns:sodipodi="http://sodipodi.sourceforge.net/DTD/sodipodi-0.dtd"
   xmlns:inkscape="http://www.inkscape.org/namespaces/inkscape"
   width="151"
   height="44.949001"
   viewBox="0 0 151 44.949002"
   id="svg2"
   version="1.1"
   inkscape:version="0.91 r13725"
   sodipodi:docname="marcs-portfolio-helv.svg">
  <defs
     id="defs4" />
  <sodipodi:namedview
     id="base"
     pagecolor="#ffffff"
     bordercolor="#666666"
     borderopacity="1.0"
     inkscape:pageopacity="0.0"
     inkscape:pageshadow="2"
     inkscape:zoom="0.17957386"
     inkscape:cx="-91.898207"
     inkscape:cy="327.69896"
     inkscape:document-units="px"
     inkscape:current-layer="g2175"
     showgrid="false"
     units="px"
     inkscape:window-width="1366"
     inkscape:window-height="705"
     inkscape:window-x="-8"
     inkscape:window-y="-8"
     inkscape:window-maximized="1" />
  <metadata
     id="metadata7">
    <rdf:RDF>
      <cc:Work
         rdf:about="">
        <dc:format>image/svg+xml</dc:format>
        <dc:type
           rdf:resource="http://purl.org/dc/dcmitype/StillImage" />
        <dc:title></dc:title>
      </cc:Work>
    </rdf:RDF>
  </metadata>
  <g
     inkscape:label="Layer 1"
     inkscape:groupmode="layer"
     id="layer1"
     transform="translate(0,-1007.4132)">
    <g
       transform="matrix(3.5433067,0,0,3.5433067,-206.94234,-347.53731)"
       id="layer1-1"
       inkscape:label="Layer 1">
      <g
         transform="matrix(0.20371985,0,0,0.20371985,3.6734871,231.67461)"
         id="g2175">
        <g
           id="g4170"
           transform="translate(293.76508,480.07474)">
          <g
             style="font-style:normal;font-weight:normal;font-size:32.44524384px;line-height:1.25;font-family:sans-serif;letter-spacing:0px;word-spacing:0px;fill:#00ff00;fill-opacity:1;stroke:#00ff00;stroke-width:0.88404614;stroke-miterlimit:4;stroke-dasharray:none"
             id="text832-2-1-7-2-2-6-4-3-8-1-6-70-4">
            <path
               d="m -17.660175,295.32436 -7.008172,26.28065 4.0881,0 7.008173,-26.28065 -4.088101,0 z"
               style="font-style:normal;font-variant:normal;font-weight:900;font-stretch:normal;font-family:'Helvetica Black';-inkscape-font-specification:'Helvetica Black,  Heavy';text-align:center;text-anchor:middle;fill:#00ff00;stroke:#00ff00;stroke-width:0.88404614;stroke-miterlimit:4;stroke-dasharray:none"
               id="path4182" />
            <path
               d="m -11.679097,298.34177 -1.200474,3.56898 4.4774439,1.20047 -2.9525169,3.79609 2.9849621,2.20628 2.8227362,-4.02321 2.8227363,4.02321 2.95251715,-2.27117 -3.08229815,-3.79609 4.5098889,-1.52493 -1.23291929,-3.34186 -4.28277221,1.65471 0,-4.50989 -3.5040863,0 0,4.50989 -4.3152177,-1.49248 z"
               style="font-style:normal;font-variant:normal;font-weight:900;font-stretch:normal;font-family:'Helvetica Black';-inkscape-font-specification:'Helvetica Black,  Heavy';text-align:center;text-anchor:middle;fill:#00ff00;stroke:#00ff00;stroke-width:0.88404614;stroke-miterlimit:4;stroke-dasharray:none"
               id="path4184" />
            <path
               d="m 12.935183,305.9664 0,-5.19124 2.173832,0 c 1.622262,0 4.0881,0.29201 4.0881,2.46584 0,2.01161 -1.297809,2.7254 -3.082298,2.7254 l -3.179634,0 z m 0,12.71854 0,-7.26774 3.860984,0 c 6.716166,0 9.701128,-3.17963 9.701128,-8.20864 0,-4.8019 -3.244524,-7.8842 -9.96069,-7.8842 l -11.2584991,0 0,23.36058 7.6570771,0 z"
               style="font-style:normal;font-variant:normal;font-weight:900;font-stretch:normal;font-family:'Helvetica Black';-inkscape-font-specification:'Helvetica Black,  Heavy';text-align:center;text-anchor:middle;fill:#00ff00;stroke:#00ff00;stroke-width:0.88404614;stroke-miterlimit:4;stroke-dasharray:none"
               id="path4186" />
            <path
               d="m 37.744642,305.73928 c 1.752043,-0.0973 2.855181,1.78449 2.855181,4.28278 0,3.21208 -1.103138,4.60722 -2.920072,4.60722 -1.719597,0 -2.920072,-1.39514 -2.920072,-4.60722 0,-1.91427 0.681351,-4.28278 2.984963,-4.28278 z m -9.733573,4.63967 c 0,5.8077 4.217881,8.79267 9.668682,8.79267 5.450801,0 9.668683,-2.92008 9.668683,-9.14956 0,-5.28858 -3.698758,-8.82511 -9.701128,-8.82511 -5.742808,0 -9.636237,3.27697 -9.636237,9.182 z"
               style="font-style:normal;font-variant:normal;font-weight:900;font-stretch:normal;font-family:'Helvetica Black';-inkscape-font-specification:'Helvetica Black,  Heavy';text-align:center;text-anchor:middle;fill:#00ff00;stroke:#00ff00;stroke-width:0.88404614;stroke-miterlimit:4;stroke-dasharray:none"
               id="path4188" />
            <path
               d="m 50.235047,318.68494 6.748611,0 0,-5.87259 c 0,-3.66632 1.395145,-4.96412 4.152991,-4.96412 0.454233,0 0.940912,0.12978 1.395145,0.19467 l 0,-6.74861 c -0.292007,-0.0324 -0.584014,-0.0973 -0.876021,-0.0973 -2.628065,0 -4.282772,1.26536 -5.223684,3.92587 l -0.06489,0 0,-3.43919 -6.132151,0 0,17.00131 z"
               style="font-style:normal;font-variant:normal;font-weight:900;font-stretch:normal;font-family:'Helvetica Black';-inkscape-font-specification:'Helvetica Black,  Heavy';text-align:center;text-anchor:middle;fill:#00ff00;stroke:#00ff00;stroke-width:0.88404614;stroke-miterlimit:4;stroke-dasharray:none"
               id="path4190" />
            <path
               d="m 76.286551,313.8506 -1.070693,0 c -1.881824,0 -2.108941,-0.55157 -2.108941,-2.10895 l 0,-6.16459 3.244525,0 0,-3.89343 -3.244525,0 0,-5.28858 -6.651275,0 0,5.28858 -2.498284,0 0,3.89343 2.400948,0 0,7.10551 c 0,5.87259 1.070694,6.48905 9.928245,6.00237 l 0,-4.83434 z"
               style="font-style:normal;font-variant:normal;font-weight:900;font-stretch:normal;font-family:'Helvetica Black';-inkscape-font-specification:'Helvetica Black,  Heavy';text-align:center;text-anchor:middle;fill:#00ff00;stroke:#00ff00;stroke-width:0.88404614;stroke-miterlimit:4;stroke-dasharray:none"
               id="path4192" />
            <path
               d="m 87.167368,301.68363 c -0.162227,-2.7254 0.616459,-2.7254 2.822736,-2.7254 l 0,-4.25033 -2.887627,0 c -4.315217,0 -6.651275,0.97336 -6.651275,6.97573 l -2.271167,0 0,3.89343 2.238722,0 0,13.10788 6.748611,0 0,-13.10788 2.822736,0 0,-3.89343 -2.822736,0 z"
               style="font-style:normal;font-variant:normal;font-weight:900;font-stretch:normal;font-family:'Helvetica Black';-inkscape-font-specification:'Helvetica Black,  Heavy';text-align:center;text-anchor:middle;fill:#00ff00;stroke:#00ff00;stroke-width:0.88404614;stroke-miterlimit:4;stroke-dasharray:none"
               id="path4194" />
            <path
               d="m 101.36773,305.73928 c 1.75205,-0.0973 2.85519,1.78449 2.85519,4.28278 0,3.21208 -1.10314,4.60722 -2.92008,4.60722 -1.719594,0 -2.920068,-1.39514 -2.920068,-4.60722 0,-1.91427 0.68135,-4.28278 2.984958,-4.28278 z m -9.733569,4.63967 c 0,5.8077 4.217882,8.79267 9.668679,8.79267 5.45081,0 9.66869,-2.92008 9.66869,-9.14956 0,-5.28858 -3.69876,-8.82511 -9.70113,-8.82511 -5.742809,0 -9.636239,3.27697 -9.636239,9.182 z"
               style="font-style:normal;font-variant:normal;font-weight:900;font-stretch:normal;font-family:'Helvetica Black';-inkscape-font-specification:'Helvetica Black,  Heavy';text-align:center;text-anchor:middle;fill:#00ff00;stroke:#00ff00;stroke-width:0.88404614;stroke-miterlimit:4;stroke-dasharray:none"
               id="path4196" />
            <path
               d="m 120.9312,318.68494 0,-23.36058 -6.74861,0 0,23.36058 6.74861,0 z"
               style="font-style:normal;font-variant:normal;font-weight:900;font-stretch:normal;font-family:'Helvetica Black';-inkscape-font-specification:'Helvetica Black,  Heavy';text-align:center;text-anchor:middle;fill:#00ff00;stroke:#00ff00;stroke-width:0.88404614;stroke-miterlimit:4;stroke-dasharray:none"
               id="path4198" />
            <path
               d="m 131.76741,318.68494 0,-17.00131 -6.74861,0 0,17.00131 6.74861,0 z m -6.74861,-19.17514 6.74861,0 0,-4.8019 -6.74861,0 0,4.8019 z"
               style="font-style:normal;font-variant:normal;font-weight:900;font-stretch:normal;font-family:'Helvetica Black';-inkscape-font-specification:'Helvetica Black,  Heavy';text-align:center;text-anchor:middle;fill:#00ff00;stroke:#00ff00;stroke-width:0.88404614;stroke-miterlimit:4;stroke-dasharray:none"
               id="path4200" />
            <path
               d="m 144.71255,305.73928 c 1.75205,-0.0973 2.85518,1.78449 2.85518,4.28278 0,3.21208 -1.10313,4.60722 -2.92007,4.60722 -1.7196,0 -2.92007,-1.39514 -2.92007,-4.60722 0,-1.91427 0.68135,-4.28278 2.98496,-4.28278 z m -9.73357,4.63967 c 0,5.8077 4.21788,8.79267 9.66868,8.79267 5.4508,0 9.66868,-2.92008 9.66868,-9.14956 0,-5.28858 -3.69875,-8.82511 -9.70112,-8.82511 -5.74281,0 -9.63624,3.27697 -9.63624,9.182 z"
               style="font-style:normal;font-variant:normal;font-weight:900;font-stretch:normal;font-family:'Helvetica Black';-inkscape-font-specification:'Helvetica Black,  Heavy';text-align:center;text-anchor:middle;fill:#00ff00;stroke:#00ff00;stroke-width:0.88404614;stroke-miterlimit:4;stroke-dasharray:none"
               id="path4202" />
            <path
               d="m 158.46832,298.34177 -1.20047,3.56898 4.47744,1.20047 -2.95252,3.79609 2.98497,2.20628 2.82273,-4.02321 2.82274,4.02321 2.95252,-2.27117 -3.0823,-3.79609 4.50989,-1.52493 -1.23292,-3.34186 -4.28277,1.65471 0,-4.50989 -3.50409,0 0,4.50989 -4.31522,-1.49248 z"
               style="font-style:normal;font-variant:normal;font-weight:900;font-stretch:normal;font-family:'Helvetica Black';-inkscape-font-specification:'Helvetica Black,  Heavy';text-align:center;text-anchor:middle;fill:#00ff00;stroke:#00ff00;stroke-width:0.88404614;stroke-miterlimit:4;stroke-dasharray:none"
               id="path4204" />
            <path
               d="m 179.54608,295.32436 -7.00817,26.28065 4.0881,0 7.00817,-26.28065 -4.0881,0 z"
               style="font-style:normal;font-variant:normal;font-weight:900;font-stretch:normal;font-family:'Helvetica Black';-inkscape-font-specification:'Helvetica Black,  Heavy';text-align:center;text-anchor:middle;fill:#00ff00;stroke:#00ff00;stroke-width:0.88404614;stroke-miterlimit:4;stroke-dasharray:none"
               id="path4206" />
          </g>
          <g
             transform="translate(155.72619,-6.5011904)"
             id="g2164">
            <g
               style="font-style:normal;font-weight:normal;font-size:32.44524384px;line-height:1.25;font-family:sans-serif;letter-spacing:0px;word-spacing:0px;fill:#6600ff;fill-opacity:1;stroke:#6600ff;stroke-width:0.88404614;stroke-miterlimit:4;stroke-dasharray:none"
               id="text832-2-1-7-2-2-6-4-3-8-1-6-7-1-37">
              <path
                 d="m -140.49758,290.69797 0,-7.91664 -0.16223,-3.63387 -0.32445,-3.4392 0.0649,0 4.25032,14.98971 5.32102,0 4.25033,-14.98971 0.0649,0 -0.38934,4.21789 -0.0973,3.63386 0,7.13796 6.87839,0 0,-23.36058 -9.24689,0 -4.12055,14.56792 -4.12054,-14.56792 -9.2469,0 0,23.36058 6.8784,0 z"
                 style="font-style:normal;font-variant:normal;font-weight:900;font-stretch:normal;font-family:'Helvetica Black';-inkscape-font-specification:'Helvetica Black,  Heavy';text-align:center;text-anchor:middle;fill:#6600ff;stroke:#6600ff;stroke-width:0.88404614;stroke-miterlimit:4;stroke-dasharray:none"
                 id="path4209" />
              <path
                 d="m -103.69302,282.74888 -4.83434,0 2.3685,-8.37087 2.46584,8.37087 z m -7.1704,7.94909 0.87602,-3.0823 7.62464,0 0.90846,3.0823 7.624636,0 -8.370876,-23.36058 -7.78686,0 -8.37087,23.36058 7.49485,0 z"
                 style="font-style:normal;font-variant:normal;font-weight:900;font-stretch:normal;font-family:'Helvetica Black';-inkscape-font-specification:'Helvetica Black,  Heavy';text-align:center;text-anchor:middle;fill:#6600ff;stroke:#6600ff;stroke-width:0.88404614;stroke-miterlimit:4;stroke-dasharray:none"
                 id="path4211" />
              <path
                 d="m -83.857821,272.78819 3.568977,0 c 1.784488,0 3.082298,0.77869 3.082298,2.4334 0,1.62226 -1.265365,2.20627 -3.633868,2.20627 l -3.017407,0 0,-4.63967 z m 2.336057,9.76602 c 3.568977,0 4.088101,1.0058 4.088101,4.05566 0,2.07649 0.194671,3.56897 0.389343,4.0881 l 7.754413,0 0,-0.7138 c -0.908467,0 -0.811131,-1.03825 -0.811131,-4.0881 0,-4.70456 -1.492481,-5.28857 -3.95832,-6.19704 2.725401,-0.74624 3.925875,-3.01741 3.925875,-5.71036 0,-4.54234 -2.563174,-6.65128 -10.350033,-6.65128 l -11.031383,0 0,23.36058 7.657078,0 0,-8.14376 2.336057,0 z"
                 style="font-style:normal;font-variant:normal;font-weight:900;font-stretch:normal;font-family:'Helvetica Black';-inkscape-font-specification:'Helvetica Black,  Heavy';text-align:center;text-anchor:middle;fill:#6600ff;stroke:#6600ff;stroke-width:0.88404614;stroke-miterlimit:4;stroke-dasharray:none"
                 id="path4213" />
              <path
                 d="m -44.166131,276.25983 c -0.61646,-6.00237 -4.607225,-9.5389 -11.745178,-9.5389 -6.521494,0 -11.647843,4.70456 -11.647843,12.2643 0,7.59219 4.672115,12.3292 12.394083,12.3292 6.164596,0 10.479814,-3.63387 11.161164,-9.66869 l -7.36507,0 c -0.292008,2.23873 -1.460036,3.95832 -3.925875,3.95832 -3.893429,0 -4.607224,-3.08229 -4.607224,-6.35926 0,-4.50989 1.622262,-6.8135 4.315217,-6.8135 2.400948,0 3.925874,1.39514 4.152991,3.82853 l 7.267735,0 z"
                 style="font-style:normal;font-variant:normal;font-weight:900;font-stretch:normal;font-family:'Helvetica Black';-inkscape-font-specification:'Helvetica Black,  Heavy';text-align:center;text-anchor:middle;fill:#6600ff;stroke:#6600ff;stroke-width:0.88404614;stroke-miterlimit:4;stroke-dasharray:none"
                 id="path4215" />
              <path
                 d="m -26.245711,267.33739 -7.008172,26.28065 4.088101,0 7.008172,-26.28065 -4.088101,0 z"
                 style="font-style:normal;font-variant:normal;font-weight:900;font-stretch:normal;font-family:'Helvetica Black';-inkscape-font-specification:'Helvetica Black,  Heavy';text-align:center;text-anchor:middle;fill:#6600ff;stroke:#6600ff;stroke-width:0.88404614;stroke-miterlimit:4;stroke-dasharray:none"
                 id="path4217" />
              <path
                 d="m -22.146461,285.40939 c 0.356898,4.57478 4.63967,5.77526 8.5331,5.77526 6.2294864,0 9.1495583,-2.40095 9.1495583,-5.93748 0,-6.35927 -10.7393753,-4.76945 -10.7393753,-7.13796 0,-0.84357 0.74624,-1.20047 1.914269,-1.20047 0.519124,0 1.005803,0.12978 1.3627,0.42179 0.356898,0.292 0.584015,0.68135 0.648905,1.23292 l 6.1321512,0 c -0.3893429,-4.50989 -4.7370056,-5.35347 -8.4357632,-5.35347 -3.536532,0 -8.046421,1.26537 -8.046421,5.61303 0,6.58638 10.414924,4.41255 10.414924,7.13795 0,1.20048 -1.103139,1.52493 -2.141386,1.52493 -0.648905,0 -1.23292,-0.19467 -1.654708,-0.51913 -0.454233,-0.35689 -0.713795,-0.87602 -0.713795,-1.55737 l -6.424159,0 z"
                 style="font-style:normal;font-variant:normal;font-weight:900;font-stretch:normal;font-family:'Helvetica Black';-inkscape-font-specification:'Helvetica Black,  Heavy';text-align:center;text-anchor:middle;fill:#6600ff;stroke:#6600ff;stroke-width:0.88404614;stroke-miterlimit:4;stroke-dasharray:none"
                 id="path4219" />
            </g>
            <g
               style="font-style:normal;font-weight:normal;font-size:32.44524384px;line-height:1.25;font-family:sans-serif;letter-spacing:0px;word-spacing:0px;fill:#6600ff;fill-opacity:1;stroke:#6600ff;stroke-width:0.88404614;stroke-miterlimit:4;stroke-dasharray:none"
               id="text832-2-1-7-2-2-6-4-3-8-1-6-7-1-9-3">
              <path
                 d="m -155.80482,286.84763 -11.55051,-4.73701 11.55051,-4.86678 0,-4.15299 -16.51463,7.36507 0,3.21207 16.51463,7.33263 0,-4.15299 z"
                 style="font-style:normal;font-variant:normal;font-weight:900;font-stretch:normal;font-family:'Helvetica Black';-inkscape-font-specification:'Helvetica Black,  Heavy';text-align:center;text-anchor:middle;fill:#6600ff;stroke:#6600ff;stroke-width:0.88404614;stroke-miterlimit:4;stroke-dasharray:none"
                 id="path4222" />
            </g>
            <g
               style="font-style:normal;font-weight:normal;font-size:32.44524384px;line-height:1.25;font-family:sans-serif;letter-spacing:0px;word-spacing:0px;fill:#6600ff;fill-opacity:1;stroke:#6600ff;stroke-width:0.88404614;stroke-miterlimit:4;stroke-dasharray:none"
               id="text832-2-1-7-2-2-6-4-3-8-1-6-7-1-9-5-2">
              <path
                 d="m 2.4922516,286.84763 0,4.15299 16.5146294,-7.33263 0,-3.21207 -16.5146294,-7.36507 0,4.15299 11.5505064,4.86678 -11.5505064,4.73701 z"
                 style="font-style:normal;font-variant:normal;font-weight:900;font-stretch:normal;font-family:'Helvetica Black';-inkscape-font-specification:'Helvetica Black,  Heavy';text-align:center;text-anchor:middle;fill:#6600ff;stroke:#6600ff;stroke-width:0.88404614;stroke-miterlimit:4;stroke-dasharray:none"
                 id="path4225" />
            </g>
          </g>
        </g>
      </g>
      <text
         xml:space="preserve"
         style="font-style:normal;font-weight:normal;font-size:32.44524384px;line-height:1.25;font-family:sans-serif;letter-spacing:0px;word-spacing:0px;fill:#6600ff;fill-opacity:1;stroke:#6600ff;stroke-width:0.8840462;stroke-miterlimit:4;stroke-dasharray:none"
         x="-17.199757"
         y="291.1185"
         id="text832-2-1-7-2-2-6-4-3-8-1-6-7-1-9-5-2-9"><tspan
           sodipodi:role="line"
           x="-17.199757"
           y="291.1185"
           style="font-style:normal;font-variant:normal;font-weight:normal;font-stretch:normal;font-family:Eagle;-inkscape-font-specification:Eagle;text-align:center;text-anchor:middle;fill:#6600ff;stroke:#6600ff;stroke-width:0.8840462;stroke-miterlimit:4;stroke-dasharray:none"
           id="tspan2560-1-1-4-6-4-4-8-4-5-29" /></text>
    </g>
  </g>
</svg>
